<svg width="24" height="24" viewBox="0 0 24 24" fill="none" xmlns="http://www.w3.org/2000/svg">
<path d="M20.8577 4.76814C20.857 4.76018 20.8556 4.75243 20.8543 4.74468C20.8538 4.7421 20.8536 4.73943 20.8531 4.73685C20.8513 4.72759 20.8489 4.71855 20.8463 4.70964L20.8455 4.70632C20.8427 4.69715 20.8395 4.6882 20.836 4.67941L20.835 4.67666C20.8315 4.66826 20.8276 4.66013 20.8235 4.65212L20.8216 4.64807C20.8177 4.64062 20.8133 4.63348 20.8088 4.62637C20.8077 4.62456 20.8067 4.62267 20.8055 4.6209C20.8012 4.61427 20.7964 4.60799 20.7915 4.6017C20.7899 4.59964 20.7885 4.59748 20.7869 4.59546C20.7808 4.58801 20.7744 4.58091 20.7677 4.57402L20.7659 4.57204L16.3423 0.094544L16.3399 0.0923483C16.3333 0.0857613 16.3264 0.0793894 16.3192 0.0734051C16.3169 0.0714677 16.3144 0.0698317 16.3121 0.0679804C16.3062 0.0633738 16.3004 0.0587671 16.2942 0.054591C16.292 0.0531272 16.2897 0.0519217 16.2876 0.050501C16.2809 0.0462387 16.2743 0.0420196 16.2674 0.038274L16.2626 0.0359922C16.2549 0.0319883 16.2471 0.0281135 16.2391 0.0247123L16.2359 0.0235499C16.2273 0.0200626 16.2187 0.0167906 16.2097 0.0140352L16.2063 0.0131311C16.1975 0.0105479 16.1886 0.00818004 16.1796 0.00632877C16.1769 0.00576908 16.1741 0.00555382 16.1714 0.00508023C16.1639 0.0037456 16.1563 0.00241096 16.1486 0.00163601C16.1381 0.000559687 16.1275 0 16.1168 0H5.56829C4.64189 0 3.88818 0.762896 3.88818 1.70059V20.2994C3.88818 21.2371 4.64189 22 5.56829 22H19.1792C20.1056 22 20.8594 21.2371 20.8594 20.2994V4.80039C20.8594 4.78959 20.8588 4.77882 20.8577 4.76814ZM15.842 1L19.3286 4.5H16.8382C15.842 4.5 15.842 4 15.842 3.5V1ZM19.1792 21H5.56829C5.38241 21 4.88434 21 4.88434 20.2994V11V1.70059C4.88434 1 5.38241 1 5.56829 1H14.8459V3.5C14.8459 5 15.842 5.5 16.8382 5.5H19.8266V20.2994C19.8266 20.8073 19.3286 21 19.1792 21Z" fill="#5176A1"/>
<path d="M18.4926 15.0541H16.3267C16.1398 15.0541 15.9883 15.2658 15.9883 15.527C15.9883 15.7883 16.1398 16 16.3267 16H18.4926C18.6795 16 18.831 15.7883 18.831 15.527C18.831 15.2658 18.6795 15.0541 18.4926 15.0541Z" fill="#5176A2"/>
<path d="M6.21927 16H14.8827C15.0696 16 15.2211 15.7883 15.2211 15.527C15.2211 15.2658 15.0696 15.0541 14.8827 15.0541H6.21927C6.03238 15.0541 5.88086 15.2658 5.88086 15.527C5.88086 15.7883 6.03238 16 6.21927 16Z" fill="#5176A2"/>
<path d="M18.4927 9H9.4683C9.2814 9 9.12988 9.2117 9.12988 9.47297C9.12988 9.73424 9.2814 9.94594 9.4683 9.94594H18.4927C18.6795 9.94594 18.8311 9.73424 18.8311 9.47297C18.8311 9.2117 18.6795 9 18.4927 9Z" fill="#5176A2"/>
<path d="M6.21927 9.94594H8.02428C8.21118 9.94594 8.36269 9.73424 8.36269 9.47297C8.36269 9.2117 8.21118 9 8.02428 9H6.21927C6.03238 9 5.88086 9.2117 5.88086 9.47297C5.88086 9.73424 6.03238 9.94594 6.21927 9.94594Z" fill="#5176A2"/>
<path d="M18.4924 12.027H6.21927C6.03238 12.027 5.88086 12.2387 5.88086 12.5C5.88086 12.7613 6.03238 12.973 6.21927 12.973H18.4924C18.6793 12.973 18.8308 12.7613 18.8308 12.5C18.8308 12.2387 18.6793 12.027 18.4924 12.027Z" fill="#5176A2"/>
</svg>
