<svg width="24" height="24" viewBox="0 0 24 24" fill="none" xmlns="http://www.w3.org/2000/svg">
<path d="M20.0351 4.76814C20.0343 4.76018 20.0329 4.75243 20.0316 4.74468C20.0311 4.7421 20.0309 4.73943 20.0304 4.73685C20.0286 4.72759 20.0262 4.71855 20.0236 4.70964L20.0228 4.70632C20.02 4.69715 20.0168 4.6882 20.0132 4.67941L20.0122 4.67666C20.0088 4.66826 20.0048 4.66013 20.0007 4.65212L19.9988 4.64807C19.9948 4.64062 19.9905 4.63348 19.986 4.62637C19.9848 4.62456 19.9839 4.62267 19.9827 4.6209C19.9783 4.61427 19.9735 4.60799 19.9686 4.6017C19.967 4.59964 19.9656 4.59748 19.9639 4.59546C19.9579 4.58801 19.9514 4.58091 19.9447 4.57402L19.9429 4.57204L15.5022 0.094544L15.4998 0.0923483C15.4931 0.0857613 15.4863 0.0793894 15.4791 0.0734051C15.4767 0.0714677 15.4742 0.0698317 15.4718 0.0679804C15.4659 0.0633738 15.4601 0.0587671 15.4539 0.054591C15.4517 0.0531272 15.4494 0.0519217 15.4472 0.050501C15.4406 0.0462387 15.4339 0.0420196 15.427 0.038274L15.4222 0.0359922C15.4145 0.0319883 15.4066 0.0281135 15.3986 0.0247123L15.3954 0.0235499C15.3868 0.0200626 15.3781 0.0167906 15.3691 0.0140352L15.3657 0.0131311C15.3569 0.0105479 15.3479 0.00818004 15.3388 0.00632877C15.3361 0.00576908 15.3334 0.00555382 15.3306 0.00508023C15.3231 0.0037456 15.3155 0.00241096 15.3077 0.00163601C15.2972 0.000559687 15.2865 0 15.2758 0H4.68659C3.75662 0 3 0.762896 3 1.70059V20.2994C3 21.2371 3.75662 22 4.68659 22H18.3501C19.2801 22 20.0367 21.2371 20.0367 20.2994V4.80039C20.0367 4.78959 20.0361 4.77882 20.0351 4.76814ZM15 1L18.5 4.5H16C15 4.5 15 4 15 3.5V1ZM18.3501 21H4.68659C4.5 21 4 21 4 20.2994V11V1.70059C4 1 4.5 1 4.68659 1H14V3.5C14 5 15 5.5 16 5.5H19V20.2994C19 20.8073 18.5 21 18.3501 21Z" fill="#5176A1"/>
<path d="M17.2777 13.992L14.4709 11.1845C14.9976 9.98889 14.7722 8.53917 13.7945 7.56119C12.5206 6.28702 10.4586 6.28685 9.18461 7.56119C7.91372 8.83238 7.91372 10.9007 9.18461 12.1719C10.1945 13.1821 11.6746 13.3744 12.8561 12.8282L15.6486 15.6213C16.0988 16.0716 16.8276 16.0717 17.2778 15.6212C17.7268 15.172 17.7268 14.4412 17.2777 13.992ZM9.70467 11.652C8.72042 10.6675 8.72042 9.06565 9.70467 8.08116C10.6911 7.09448 12.2878 7.09431 13.2744 8.08116C14.2587 9.06565 14.2587 10.6675 13.2744 11.652C12.288 12.6387 10.6913 12.6388 9.70467 11.652ZM16.7577 15.1013C16.5949 15.2642 16.3314 15.2642 16.1686 15.1013L13.5007 12.4328C13.72 12.2602 13.9154 12.0619 14.0852 11.8388L16.7576 14.5119C16.9201 14.6744 16.9201 14.9388 16.7577 15.1013Z" fill="#5176A1"/>
<path d="M5.43191 11.0116H6.99986C7.20293 11.0116 7.36757 10.847 7.36757 10.6439C7.36757 10.4408 7.20293 10.2762 6.99986 10.2762H5.43191C5.22884 10.2762 5.06421 10.4408 5.06421 10.6439C5.06421 10.847 5.22884 11.0116 5.43191 11.0116Z" fill="#5176A1"/>
<path d="M5.43191 12.5805H7.58785C7.79092 12.5805 7.95555 12.4159 7.95555 12.2128C7.95555 12.0097 7.79092 11.8451 7.58785 11.8451H5.43191C5.22884 11.8451 5.06421 12.0097 5.06421 12.2128C5.06421 12.4159 5.22884 12.5805 5.43191 12.5805Z" fill="#5176A1"/>
<path d="M5.43191 14.1494H9.15582C9.35889 14.1494 9.52353 13.9847 9.52353 13.7817C9.52353 13.5786 9.35889 13.414 9.15582 13.414H5.43191C5.22884 13.414 5.06421 13.5786 5.06421 13.7817C5.06421 13.9847 5.22884 14.1494 5.43191 14.1494Z" fill="#5176A1"/>
<path d="M13.4677 14.9828H5.43191C5.22884 14.9828 5.06421 15.1475 5.06421 15.3505C5.06421 15.5536 5.22884 15.7182 5.43191 15.7182H13.4677C13.6708 15.7182 13.8354 15.5536 13.8354 15.3505C13.8354 15.1475 13.6708 14.9828 13.4677 14.9828Z" fill="#5176A1"/>
</svg>
