<svg width="58" height="54" viewBox="0 0 58 54" fill="none" xmlns="http://www.w3.org/2000/svg">
<g clip-path="url(#clip0)">
<path d="M37.3728 0.310612C37.1069 0.051185 36.7422 -0.104553 36.3643 -0.104553H13.7386C9.56354 -0.104553 6.11731 3.07456 6.11731 6.94096V46.5677C6.11731 50.4346 9.56354 53.6137 13.7386 53.6137H44.4476C48.6226 53.6137 52.0689 50.4346 52.0689 46.5677V15.1025C52.0689 14.7652 51.9007 14.441 51.6627 14.1943L37.3728 0.310612ZM37.779 4.47579L47.3478 13.7791H41.1275C39.2782 13.7791 37.779 12.4037 37.779 10.691V4.47579ZM44.4476 51.0186H13.7386C11.119 51.0186 8.91926 49.0075 8.91926 46.5677V6.94096C8.91926 4.51473 11.1048 2.49054 13.7386 2.49054H34.9771V10.691C34.9771 13.8439 37.7233 16.3742 41.1275 16.3742H49.2669V46.5677C49.2669 49.0075 47.0814 51.0186 44.4476 51.0186Z" fill="#ADB3BB"/>
<path d="M40.6229 42.0653H17.5631C16.7927 42.0653 16.1621 42.6489 16.1621 43.3629C16.1621 44.0764 16.7927 44.6604 17.5631 44.6604H40.6371C41.4075 44.6604 42.0381 44.0764 42.0381 43.3629C42.0381 42.6489 41.4075 42.0653 40.6229 42.0653Z" fill="#ADB3BB"/>
<path d="M28.0704 37.4071C28.3368 37.6665 28.7009 37.8222 29.093 37.8222C29.4855 37.8222 29.8497 37.6665 30.1156 37.4071L38.3254 29.2456C38.8578 28.7263 38.8157 27.896 38.2555 27.4161C37.6949 26.923 36.7983 26.9615 36.2802 27.4808L30.494 33.2288V19.0599C30.494 18.3459 29.8634 17.7623 29.093 17.7623C28.3226 17.7623 27.692 18.3459 27.692 19.0599V33.2288L21.92 27.4808C21.3876 26.962 20.5049 26.923 19.9446 27.4161C19.3844 27.9091 19.3424 28.7267 19.8747 29.2456L28.0704 37.4071Z" fill="#ADB3BB"/>
</g>
<defs>
<clipPath id="clip0">
<rect width="58" height="53.7181" fill="white"/>
</clipPath>
</defs>
</svg>
