<svg width="18" height="14" viewBox="0 0 18 14" fill="none" xmlns="http://www.w3.org/2000/svg">
<path d="M18 7.00005L15 4.30005L15 9.70005L18 7.00005Z" fill="#5176A2"/>
<path d="M12 5.00005C12 4.61345 11.6866 4.30005 11.3 4.30005H0.700001C0.313402 4.30005 0 4.61345 0 5.00005C0 5.38665 0.313402 5.70005 0.700001 5.70005H11.3C11.6866 5.70005 12 5.38665 12 5.00005Z" fill="#5176A2"/>
<path d="M12 9.00005C12 8.61345 11.6866 8.30005 11.3 8.30005H0.700001C0.313402 8.30005 0 8.61345 0 9.00005C0 9.38665 0.313402 9.70005 0.700001 9.70005H11.3C11.6866 9.70005 12 9.38665 12 9.00005Z" fill="#5176A2"/>
<path d="M18 13C18 12.6134 17.6866 12.3 17.3 12.3H0.700001C0.313402 12.3 0 12.6134 0 13C0 13.3866 0.3134 13.7 0.699999 13.7H17.3C17.6866 13.7 18 13.3866 18 13Z" fill="#5176A2"/>
<path d="M18 1.00005C18 0.613449 17.6866 0.300049 17.3 0.300049H0.700001C0.313402 0.300049 0 0.613449 0 1.00005C0 1.38665 0.3134 1.70005 0.699999 1.70005H17.3C17.6866 1.70005 18 1.38665 18 1.00005Z" fill="#5176A2"/>
</svg>
