<svg width="24" height="24" viewBox="0 0 24 24" fill="none" xmlns="http://www.w3.org/2000/svg">
<path d="M2.0625 6C1.64829 6 1.3125 6.33579 1.3125 6.75C1.3125 7.16421 1.64829 7.5 2.0625 7.5V6ZM21.9375 7.5C22.3517 7.5 22.6875 7.16421 22.6875 6.75C22.6875 6.33579 22.3517 6 21.9375 6V7.5ZM18 6.75C18 7.99264 16.9926 9 15.75 9V10.5C17.8211 10.5 19.5 8.82107 19.5 6.75H18ZM15.75 9C14.5074 9 13.5 7.99264 13.5 6.75H12C12 8.82107 13.6789 10.5 15.75 10.5V9ZM13.5 6.75C13.5 5.50736 14.5074 4.5 15.75 4.5V3C13.6789 3 12 4.67893 12 6.75H13.5ZM15.75 4.5C16.9926 4.5 18 5.50736 18 6.75H19.5C19.5 4.67893 17.8211 3 15.75 3V4.5ZM12.75 6H2.0625V7.5H12.75V6ZM18.75 7.5H21.9375V6H18.75V7.5Z" fill="#5176A2"/>
<path d="M21.9375 16.5C22.3517 16.5 22.6875 16.8358 22.6875 17.25C22.6875 17.6642 22.3517 18 21.9375 18V16.5ZM2.0625 18C1.64829 18 1.3125 17.6642 1.3125 17.25C1.3125 16.8358 1.64829 16.5 2.0625 16.5V18ZM6 17.25C6 18.4926 7.00736 19.5 8.25 19.5V21C6.17893 21 4.5 19.3211 4.5 17.25H6ZM8.25 19.5C9.49264 19.5 10.5 18.4926 10.5 17.25H12C12 19.3211 10.3211 21 8.25 21V19.5ZM10.5 17.25C10.5 16.0074 9.49264 15 8.25 15V13.5C10.3211 13.5 12 15.1789 12 17.25H10.5ZM8.25 15C7.00736 15 6 16.0074 6 17.25H4.5C4.5 15.1789 6.17893 13.5 8.25 13.5V15ZM11.25 16.5H21.9375V18H11.25V16.5ZM5.25 18H2.0625V16.5H5.25V18Z" fill="#5176A2"/>
</svg>
