<svg width="18" height="14" viewBox="0 0 18 14" fill="none" xmlns="http://www.w3.org/2000/svg">
<path d="M0 6.99999L3 4.29999L3 9.69999L0 6.99999Z" fill="#5176A2"/>
<path d="M6 4.99999C6 4.61339 6.3134 4.29999 6.7 4.29999H17.3C17.6866 4.29999 18 4.61339 18 4.99999C18 5.38659 17.6866 5.69999 17.3 5.69999H6.7C6.3134 5.69999 6 5.38659 6 4.99999Z" fill="#5176A2"/>
<path d="M6 8.99999C6 8.61339 6.3134 8.29999 6.7 8.29999H17.3C17.6866 8.29999 18 8.61339 18 8.99999C18 9.38659 17.6866 9.69999 17.3 9.69999H6.7C6.3134 9.69999 6 9.38659 6 8.99999Z" fill="#5176A2"/>
<path d="M3.56439e-07 13C3.56439e-07 12.6134 0.313401 12.3 0.7 12.3H17.3C17.6866 12.3 18 12.6134 18 13C18 13.3866 17.6866 13.7 17.3 13.7H0.700001C0.313402 13.7 3.56439e-07 13.3866 3.56439e-07 13Z" fill="#5176A2"/>
<path d="M3.56439e-07 0.999988C3.56439e-07 0.613388 0.313401 0.299988 0.7 0.299988H17.3C17.6866 0.299988 18 0.613388 18 0.999988C18 1.38659 17.6866 1.69999 17.3 1.69999H0.700001C0.313402 1.69999 3.56439e-07 1.38659 3.56439e-07 0.999988Z" fill="#5176A2"/>
</svg>
