<svg width="22" height="23" viewBox="0 0 24 24" fill="none" xmlns="http://www.w3.org/2000/svg">
<g clip-path="url(#clip0)">
<path d="M17.4442 10.6771H15.3776C15.1993 10.6771 15.0547 10.8217 15.0547 11C15.0547 11.1784 15.1993 11.3229 15.3776 11.3229H17.4442C17.6225 11.3229 17.7671 11.1784 17.7671 11C17.7671 10.8217 17.6225 10.6771 17.4442 10.6771Z" fill="#5176A2"/>
<path d="M5.73378 11.3229H14C14.1783 11.3229 14.3229 11.1784 14.3229 11C14.3229 10.8217 14.1783 10.6771 14 10.6771H5.73378C5.55546 10.6771 5.41089 10.8217 5.41089 11C5.41089 11.1784 5.55546 11.3229 5.73378 11.3229Z" fill="#5176A2"/>
<path d="M5.70784 13.505H10.4999C10.6089 13.505 10.8266 13.4333 10.8266 13.1782C10.8266 12.9232 10.6089 12.8515 10.4999 12.8515H5.70784C5.59887 12.8515 5.3811 12.9088 5.3811 13.1782C5.3811 13.4476 5.59887 13.505 5.70784 13.505Z" fill="#5176A2"/>
<path d="M17.4442 6.54404H8.83364C8.65531 6.54404 8.51074 6.68856 8.51074 6.86693C8.51074 7.0453 8.65531 7.18983 8.83364 7.18983H17.4442C17.6225 7.18983 17.7671 7.0453 17.7671 6.86693C17.7671 6.68856 17.6225 6.54404 17.4442 6.54404Z" fill="#5176A2"/>
<path d="M5.73379 7.18983H7.45603C7.63435 7.18983 7.77893 7.0453 7.77893 6.86693C7.77893 6.68856 7.63435 6.54404 7.45603 6.54404H5.73379C5.55546 6.54404 5.41089 6.68856 5.41089 6.86693C5.41089 7.0453 5.55546 7.18983 5.73379 7.18983Z" fill="#5176A2"/>
<path d="M9.52244 14.8102H5.73379C5.55546 14.8102 5.41089 14.9547 5.41089 15.1331C5.41089 15.3114 5.55546 15.456 5.73379 15.456H9.52244C9.70076 15.456 9.84533 15.3114 9.84533 15.1331C9.84533 14.9547 9.70076 14.8102 9.52244 14.8102Z" fill="#5176A2"/>
<path d="M17.4442 8.61057H5.73378C5.55546 8.61057 5.41089 8.75509 5.41089 8.93346C5.41089 9.11183 5.55546 9.25636 5.73378 9.25636H17.4442C17.6225 9.25636 17.7671 9.11183 17.7671 8.93346C17.7671 8.75509 17.6225 8.61057 17.4442 8.61057Z" fill="#5176A2"/>
<path d="M16.9256 17.3094C16.9256 17.1249 16.7857 16.9753 16.6132 16.9753H14.9366V14.4925C14.9366 14.308 14.7967 14.1584 14.6242 14.1584C14.4517 14.1584 14.3118 14.308 14.3118 14.4925V17.2918C14.3118 17.4765 14.4465 17.6436 14.619 17.6436H16.6132C16.7857 17.6436 16.9256 17.494 16.9256 17.3094Z" fill="#5176A2"/>
<path d="M20.0351 4.76814C20.0343 4.76018 20.0329 4.75243 20.0316 4.74468C20.0311 4.7421 20.0309 4.73943 20.0304 4.73685C20.0286 4.72759 20.0262 4.71855 20.0236 4.70964L20.0228 4.70632C20.02 4.69715 20.0168 4.6882 20.0132 4.67941L20.0122 4.67666C20.0088 4.66826 20.0048 4.66013 20.0007 4.65212L19.9988 4.64807C19.9948 4.64062 19.9905 4.63348 19.986 4.62637C19.9848 4.62456 19.9839 4.62267 19.9827 4.6209C19.9783 4.61427 19.9735 4.60799 19.9686 4.6017C19.967 4.59964 19.9656 4.59748 19.9639 4.59546C19.9579 4.58801 19.9514 4.58091 19.9447 4.57402L19.9429 4.57204L15.5022 0.094544L15.4998 0.0923483C15.4931 0.0857613 15.4863 0.0793894 15.4791 0.0734051C15.4767 0.0714677 15.4742 0.0698317 15.4718 0.0679804C15.4659 0.0633738 15.4601 0.0587671 15.4539 0.054591C15.4517 0.0531272 15.4494 0.0519217 15.4472 0.050501C15.4406 0.0462387 15.4339 0.0420196 15.427 0.038274L15.4222 0.0359922C15.4145 0.0319883 15.4066 0.0281135 15.3986 0.0247123L15.3954 0.0235499C15.3868 0.0200626 15.3781 0.0167906 15.3691 0.0140352L15.3657 0.0131311C15.3569 0.0105479 15.3479 0.00818004 15.3388 0.00632877C15.3361 0.00576908 15.3334 0.00555382 15.3306 0.00508023C15.3231 0.0037456 15.3155 0.00241096 15.3077 0.00163601C15.2972 0.000559687 15.2865 0 15.2758 0H4.68659C3.75662 0 3 0.762896 3 1.70059V20.2994C3 21.2371 3.75662 22 4.68659 22H15C15.93 22 20 17.9377 20 17L20.0367 4.80039C20.0367 4.78959 20.0361 4.77882 20.0351 4.76814ZM15 1L18.5 4.5H16C15 4.5 15 4 15 3.5V1ZM15 21H4.68659C4.5 21 4 21 4 20.2994V11V1.70059C4 1 4.5 1 4.68659 1H14V3.5C14 5 15 5.5 16 5.5H19V17C19.5 20.5 16 21.5 15 21Z" fill="#5176A1"/>
<path d="M20 17C20 14.2386 17.7614 12 15 12C12.2386 12 10 14.2386 10 17C10.0002 19.7614 12.2386 22 15.0002 22C17.7603 21.9968 19.997 19.7601 20 17ZM11 17C11 14.8847 12.5691 13 15 13C17.4309 13 19 15 19 17C19 19 17.3911 21 15 21C12.6089 21 11 19.1153 11 17Z" fill="#5176A2"/>
</g>
<defs>
<clipPath id="clip0">
<rect width="22" height="22" fill="white"/>
</clipPath>
</defs>
</svg>
