<svg width="42" height="36" viewBox="0 0 42 36" fill="none" xmlns="http://www.w3.org/2000/svg">
<path d="M39.5258 25.9001C39.3425 25.493 38.8867 25.296 38.4454 25.3753C37.5391 24.2957 36.7521 23.1755 36.1623 21.987C35.5794 20.8122 35.1959 19.5633 35.045 18.2337C35.393 18.0186 35.554 17.6289 35.4492 17.2473C36.2123 16.7813 36.8368 16.2208 37.2819 15.5339C37.7424 14.8222 38.0088 13.9818 38.0658 13.0041C38.1097 12.9925 38.1536 12.9954 38.196 12.9779C38.6926 12.7773 38.9213 12.235 38.7088 11.7676C38.5556 11.4295 38.2129 11.2296 37.8487 11.2158C37.3836 9.02115 37.6246 7.20887 38.2345 5.707C38.7912 4.33307 39.6559 3.2143 40.5607 2.28672C40.8148 2.41829 41.1213 2.45464 41.4078 2.33833C41.9044 2.13769 42.1331 1.59539 41.9206 1.12796C41.7081 0.659084 41.1344 0.442454 40.6377 0.643091C40.5546 0.677258 40.4899 0.733233 40.4214 0.784846C39.1885 0.0986101 37.6138 -0.123835 36.0683 0.0637168C34.7069 0.229461 33.364 0.711426 32.2967 1.46382C31.867 1.16068 31.2864 1.06981 30.759 1.28353C30.1175 1.54378 29.7633 2.16459 29.8372 2.78831C28.8169 3.12561 27.9283 3.58068 27.2076 4.18768C26.3628 4.89718 25.753 5.81095 25.3826 6.92972C25.2555 6.93045 25.1269 6.95444 25.0029 7.0046C24.5063 7.20524 24.2776 7.74754 24.4901 8.21497C24.5378 8.32037 24.6087 8.40761 24.688 8.48539C24.2606 9.74737 24.0674 10.9839 24.0858 12.1965C24.102 13.2331 24.266 14.2508 24.5409 15.254C24.062 15.5586 23.8633 16.1489 24.0997 16.6693C24.3138 17.1419 24.822 17.4057 25.3371 17.3614C26.215 19.0232 26.9319 20.5883 27.5086 22.0684C28.0839 23.5463 28.5259 24.9435 28.8847 26.2905C28.5782 26.5471 28.4558 26.96 28.626 27.3351C28.8385 27.8047 29.4122 28.0206 29.9088 27.82C30.0698 27.7553 30.1891 27.6462 30.2885 27.5227C31.6622 27.9821 32.9851 28.0875 34.2688 27.9341C35.5155 27.7851 36.7229 27.3904 37.9072 26.8648C38.1798 27.1541 38.6187 27.2697 39.0153 27.1083C39.5096 26.9113 39.7391 26.369 39.5258 25.9001ZM37.6408 25.7882C36.3032 25.4341 35.0642 24.926 33.94 24.2449C32.8373 23.5775 31.8501 22.7299 30.9723 21.7056C31.2464 21.4069 31.3449 20.9889 31.2102 20.5949L34.1386 18.3217C34.3003 19.7523 34.7269 21.0863 35.3514 22.3453C35.9513 23.5543 36.7337 24.6948 37.6408 25.7882ZM28.2017 18.124C27.6573 17.5795 27.032 17.0968 26.3628 16.6468C26.4791 16.3713 26.4845 16.0536 26.3513 15.7585C26.302 15.6494 26.2335 15.5557 26.1557 15.4699C26.6593 14.687 27.2622 14.0138 27.9653 13.4526C28.5674 12.9692 29.2505 12.5723 29.9958 12.2401C30.4047 12.7431 31.1062 12.9612 31.7646 12.7707L33.8568 16.8126C33.615 17.0292 33.5157 17.3447 33.5842 17.6595L30.6419 19.9428C30.3408 19.785 29.9743 19.748 29.6301 19.8672C29.1996 19.2507 28.7353 18.6597 28.2017 18.124ZM36.8484 15.2845C36.4526 15.8959 35.8928 16.4004 35.209 16.8249C35.1289 16.75 35.0357 16.6962 34.9372 16.6526L34.9347 16.609L34.9039 16.6323C34.7191 16.5574 34.5135 16.5516 34.3102 16.5945L32.2242 12.5657C32.5315 12.3636 32.7417 12.0685 32.8456 11.7421L36.8598 12.2517C36.8722 12.3331 36.8768 12.4153 36.9137 12.4945C37.0346 12.7613 37.278 12.9328 37.5521 13.0055C37.4967 13.8888 37.2595 14.647 36.8483 15.2845H36.8484ZM37.7593 5.53617C37.1179 7.118 36.8692 9.02624 37.3582 11.3263C37.1541 11.4295 36.997 11.5844 36.9123 11.7748L32.9174 11.2674C32.9127 11.0762 32.8719 10.8821 32.788 10.6953C32.5847 10.2482 32.182 9.9451 31.7215 9.8237C32.2436 7.54399 33.3432 5.89455 34.7909 4.67328C36.2917 3.40767 38.1682 2.58767 40.158 1.98649C39.227 2.94679 38.3384 4.10845 37.7593 5.53617ZM36.1315 0.54132L36.2062 0.532597L36.2102 0.53187L36.2811 0.5246L36.288 0.523872L36.355 0.516603H36.3658L36.4282 0.51006L36.4436 0.508605L36.5029 0.504972L36.5206 0.504244L36.576 0.499882L36.5976 0.4977L36.6508 0.494793L36.7247 0.49116L36.7531 0.488253L36.8001 0.487526L36.8309 0.48462H36.874L36.9087 0.482437H36.9479H36.9864L37.0211 0.48171L37.0642 0.480982H37.0957H37.1412H37.1689L37.2174 0.48171H37.242L37.2944 0.482437L37.3144 0.483165L37.3707 0.48462H37.3876L37.4469 0.486075L37.4608 0.48753L37.5239 0.491163H37.5339L37.6002 0.494797L37.6071 0.495525L37.6764 0.499886H37.6805L37.7521 0.505702L37.8968 0.519514L37.9038 0.520241L37.9692 0.526784L37.9777 0.527511L38.0385 0.535508L38.0524 0.536963L38.1102 0.544232L38.1263 0.547139L38.1802 0.554408L38.2003 0.557314L38.2503 0.563857L38.3173 0.574761H38.3214L38.3484 0.579123L38.3915 0.587846L38.4215 0.592208L38.4615 0.599477L38.4954 0.605293L38.5316 0.61329L38.5678 0.619832L38.6009 0.627829L38.6109 0.628556L38.6709 0.642368L38.7133 0.652545L38.7394 0.657634L38.7856 0.667811L38.808 0.672899L38.8565 0.685257L38.875 0.6918L38.9266 0.704158L38.9428 0.708519L38.9975 0.723058L39.0098 0.72742L39.0668 0.74414L39.0768 0.746322L39.1368 0.763769L39.1438 0.765951L39.2062 0.785579L39.2094 0.787034L39.2749 0.808115L39.3403 0.83065H39.3435L39.4059 0.852459L39.4113 0.854641L39.4691 0.87645L39.4791 0.880084L39.533 0.899711L39.5461 0.905527L39.5969 0.925154L39.6116 0.932424L39.6785 0.95932L39.7224 0.977494L39.7432 0.986944L39.7841 1.00512L39.8079 1.01602L39.8457 1.03201L39.8718 1.0451L39.9065 1.06109L39.9357 1.07418L39.9665 1.09017L39.9981 1.10616L40.0266 1.1207L40.0597 1.13815L40.0858 1.15123L40.112 1.1665C40.0673 1.27845 40.0473 1.39767 40.0519 1.51907C37.9852 2.13915 36.0285 2.9875 34.4561 4.31345C32.9638 5.57252 31.8195 7.2554 31.2612 9.56491C31.0895 8.74346 31.0079 7.91111 31.0163 7.06785C31.0248 6.09229 31.1611 5.09855 31.4106 4.0881C31.6008 4.08374 31.7941 4.04811 31.9797 3.97251C32.7659 3.6541 33.1302 2.79413 32.7937 2.05191C32.7536 1.96468 32.7051 1.88472 32.6504 1.80911C33.6384 1.13015 34.8758 0.693252 36.1325 0.54132H36.1315ZM27.5441 4.54679C28.2055 3.98923 29.0225 3.56396 29.9689 3.24774C30.0983 3.51017 30.2992 3.72098 30.5418 3.86637C30.2723 4.94807 30.1283 6.01523 30.1191 7.06421C30.1098 8.05722 30.2176 9.03278 30.4394 9.99308C29.9027 10.302 29.6108 10.8683 29.6686 11.4462C28.8308 11.8133 28.0661 12.2633 27.3862 12.8071C26.6123 13.4272 25.9462 14.1599 25.3941 15.0148C25.1415 14.0836 24.9929 13.1408 24.9783 12.1863C24.9606 11.0639 25.14 9.91893 25.5358 8.74854C25.6151 8.73691 25.6937 8.73328 25.7707 8.70275C26.2666 8.50211 26.4953 7.95981 26.2835 7.49238C26.1965 7.30192 26.0417 7.16598 25.8638 7.07002C26.2073 6.03703 26.7694 5.19814 27.5441 4.54679ZM26.2042 17.1004C26.8002 17.5104 27.3415 17.964 27.8305 18.4547C28.3426 18.9658 28.783 19.5321 29.195 20.1202C28.8408 20.4451 28.7145 20.9525 28.9201 21.4069C29.0687 21.7333 29.3606 21.9586 29.6963 22.0531L29.4407 24.9747C29.1357 23.9439 28.7753 22.8804 28.3449 21.7791C27.7697 20.2997 27.0682 18.7477 26.2042 17.1004ZM34.201 27.4587C32.9998 27.6019 31.7623 27.5096 30.4748 27.0814C30.4956 26.9251 30.4894 26.7652 30.4194 26.6096C30.3077 26.3668 30.0975 26.196 29.8526 26.1117L30.2038 22.0931C30.3146 22.08 30.424 22.0575 30.5318 22.0146C30.5449 22.0095 30.5541 22.0015 30.5672 21.9964C31.482 23.0658 32.5139 23.9497 33.6666 24.6469C34.8763 25.3811 36.2147 25.9132 37.6546 26.2825C37.6554 26.3334 37.6777 26.3835 37.6877 26.4344C36.5481 26.9396 35.3899 27.3177 34.201 27.4587H34.201Z" fill="#3FAEE3"/>
<path d="M27.9233 28.3815C27.7596 27.9754 27.373 27.757 26.9811 27.7924C26.2249 26.5206 25.4872 25.1478 24.7768 23.6149C24.0672 22.0812 23.388 20.3789 22.7421 18.4841C23.1154 18.1355 23.2584 17.5623 23.0525 17.049C22.8244 16.4852 22.2577 16.1911 21.7148 16.3188C21.1563 15.3655 20.5134 14.4824 19.7586 13.6954C18.8772 12.7752 17.835 11.9938 16.621 11.3662C16.6158 11.2495 16.5988 11.1312 16.5521 11.0176C16.3477 10.5106 15.7959 10.2757 15.3181 10.4933C15.2026 10.5461 15.1041 10.6226 15.0204 10.7117C13.9456 10.1471 12.8649 9.92556 11.7769 10.0218C10.8517 10.1038 9.92586 10.4223 9.00073 10.9262C8.58816 10.4058 7.89561 10.2039 7.27786 10.4862C6.76975 10.718 6.45273 11.2156 6.39199 11.7604C5.12836 11.9907 3.88103 12.6254 2.85739 13.5117C1.70708 14.5076 0.836024 15.8213 0.515303 17.2311C0.0805133 17.4692 -0.120957 18.0204 0.0753284 18.5046C0.27902 19.0139 0.83158 19.2481 1.30933 19.0305C1.53672 18.9264 1.70042 18.7356 1.793 18.5117C3.00108 18.5566 4.301 18.7679 5.58611 19.3372C7.09862 20.0083 8.59482 21.1855 9.90734 23.1702C9.67624 23.4509 9.59625 23.8546 9.74364 24.2213C9.94808 24.7299 10.5006 24.9633 10.9769 24.7472C11.0191 24.7291 11.0465 24.6936 11.0843 24.6684C11.8428 25.3575 12.6405 25.788 13.4708 25.9773C14.2715 26.1618 15.1004 26.1184 15.9507 25.8992C16.1625 26.2627 16.5573 26.4346 16.9484 26.3368C17.8291 27.4439 18.4965 28.6614 18.9779 29.9735C19.4638 31.2997 19.769 32.7206 19.9638 34.2007C19.6127 34.4688 19.4579 34.9537 19.6349 35.3929C19.8401 35.9015 20.3919 36.1365 20.8689 35.9188C21.2519 35.7438 21.457 35.3322 21.423 34.9127C22.597 34.4278 23.688 33.8277 24.6242 33.014C25.5872 32.1781 26.3745 31.1089 26.9456 29.7503C27.1063 29.7724 27.2715 29.7669 27.4307 29.6943C27.9078 29.4783 28.1285 28.89 27.9233 28.3815ZM25.636 27.2208L23.3117 25.2282C23.4636 24.9081 23.491 24.5233 23.348 24.1692C23.1473 23.6709 22.6807 23.387 22.2014 23.413C22.04 22.6687 21.9303 21.9157 21.8918 21.1532C21.8548 20.4222 21.8785 19.6834 21.9703 18.9351C22.6125 20.8062 23.294 22.4873 24.0028 24.0202C24.5331 25.1628 25.0783 26.2241 25.636 27.2208ZM17.4899 24.8245C17.3025 24.5398 17.004 24.3774 16.684 24.3947L15.0885 19.8206C15.6648 19.476 15.9685 18.7924 15.8692 18.1127C16.6077 17.8083 17.3543 17.5993 18.1098 17.5118C18.9898 17.4109 19.8867 17.4669 20.7993 17.6782C20.8119 17.7996 20.8348 17.9219 20.8822 18.0393C21.0074 18.3508 21.237 18.5779 21.5081 18.7001C21.3948 19.5375 21.3622 20.3647 21.403 21.1816C21.4437 21.9795 21.5548 22.7688 21.7259 23.551C21.4178 23.7206 21.2074 24.0139 21.1252 24.3514L17.4899 24.8245ZM11.8169 10.5414C12.8116 10.4531 13.8041 10.6549 14.7937 11.1722C14.7448 11.378 14.7419 11.5972 14.8263 11.8069C15.0307 12.3155 15.5833 12.5505 16.0596 12.3329C16.1336 12.299 16.1892 12.243 16.2499 12.1933C17.3765 12.7752 18.3409 13.4983 19.1572 14.3507C19.8519 15.0745 20.4489 15.8899 20.9682 16.7738C19.9712 16.5427 18.9875 16.4891 18.0187 16.6003C17.1669 16.6981 16.3277 16.9299 15.5018 17.2753C15.113 16.8014 14.5011 16.594 13.9175 16.7612C13.3545 15.8796 12.7064 15.069 11.9687 14.3333C11.1865 13.5559 10.3036 12.8659 9.32737 12.2564C9.38144 11.9678 9.35922 11.6611 9.25034 11.3685C10.1103 10.9025 10.9673 10.6155 11.8169 10.5414H11.8169ZM1.05897 17.0671L1.06786 17.0395L1.07971 16.9985L1.08786 16.9733L1.10193 16.9283L1.11008 16.9062L1.12563 16.8589L1.14859 16.7903L1.15452 16.7738L1.17304 16.7209L1.17748 16.7083L1.19748 16.6523L1.20192 16.6429L1.22488 16.5837L1.22785 16.5782L1.25155 16.5159L1.25229 16.5128L1.2797 16.4473L1.3071 16.3827L1.30858 16.3795L1.33599 16.3196L1.33895 16.3117L1.36488 16.2549L1.36932 16.2455L1.39525 16.1903L1.40117 16.1777L1.4271 16.1272L1.4345 16.1122L1.45746 16.0633L1.46709 16.046L1.49079 16.001L1.50265 15.9789L1.52413 15.9379L1.53746 15.9143L1.55894 15.8749L1.58783 15.8212L1.59376 15.8126L1.61005 15.7834L1.62783 15.7511L1.64783 15.718L1.66338 15.6888L1.68486 15.6541L1.70042 15.6281L1.72338 15.5902L1.73819 15.5673L1.74116 15.5634L1.77745 15.5082L1.80486 15.4648L1.81671 15.4475L1.84708 15.4018L1.85671 15.3868L1.8893 15.3379L1.89744 15.3261L1.933 15.2764L1.93892 15.2677L1.9767 15.2149L1.98114 15.2094L2.06706 15.0927L2.11151 15.0343L2.11299 15.0335L2.15521 14.9775L2.15965 14.972L2.20113 14.9208L2.2078 14.9121L2.24705 14.864L2.25668 14.8522L2.29372 14.8064L2.30557 14.7938L2.34187 14.7512L2.3552 14.7339L2.38853 14.6945L2.40556 14.6763L2.43741 14.6401L2.45593 14.6195L2.48556 14.5856L2.5063 14.5636L2.5337 14.5328L2.55814 14.506L2.58407 14.4784L2.61 14.45L2.63444 14.4248L2.66184 14.3932L2.68332 14.3712L2.71517 14.3388L2.73517 14.3199L2.78702 14.2671L2.82405 14.2316L2.83961 14.2158L2.88035 14.1772L2.89368 14.1646L2.9359 14.1244L2.94775 14.1149L2.99367 14.0723L3.00182 14.0636L3.05071 14.0195L3.05663 14.014L3.10848 13.969L3.11145 13.9659L3.16626 13.917C4.11213 13.0993 5.25428 12.5071 6.41273 12.2832C6.43199 12.3802 6.45865 12.4764 6.49717 12.571C6.8216 13.3761 7.6971 13.7498 8.45483 13.4029C8.63334 13.3217 8.78815 13.205 8.91851 13.067C9.82882 13.6378 10.6532 14.2789 11.3791 15.002C12.0072 15.6273 12.5672 16.3109 13.0605 17.0513C10.9836 15.7393 8.9837 15.33 7.06381 15.4956C5.14985 15.6604 3.32255 16.4016 1.58266 17.3865C1.43452 17.2382 1.24268 17.1594 1.04195 17.1349L1.05084 17.1073L1.05897 17.0671ZM5.77351 18.8602C4.441 18.268 3.1033 18.0527 1.85745 18.0031C1.85152 17.9479 1.84041 17.8927 1.82559 17.8383C3.5092 16.8857 5.26983 16.1714 7.1038 16.0121C8.96591 15.852 10.9132 16.2699 12.9412 17.5875C12.7257 18.0196 12.6827 18.5448 12.8783 19.0297C12.9597 19.2324 13.0768 19.4074 13.2153 19.5533L10.9406 22.8958C10.7436 22.8169 10.5243 22.8169 10.3132 22.891C8.93999 20.8086 7.36749 19.5659 5.77351 18.8602ZM13.5738 25.4711C12.8301 25.3007 12.1131 24.9096 11.425 24.2922C11.5539 24.0336 11.588 23.7237 11.471 23.4343C11.4369 23.3484 11.3806 23.2829 11.328 23.2136L13.6138 19.8553C13.9241 20.0224 14.2804 20.0855 14.6345 20.009L16.224 24.5682C16.0566 24.6873 15.9255 24.845 15.8581 25.0374L15.8196 25.0421L15.8514 25.076C15.8181 25.1832 15.7966 25.2929 15.7981 25.4072C15.0315 25.598 14.2871 25.6359 13.5738 25.4711L13.5738 25.4711ZM17.6128 25.7313L21.2311 25.2597C21.4326 25.6548 21.8066 25.8937 22.2088 25.9142C22.3829 27.3296 22.3533 28.6969 22.1155 30.0137C21.8726 31.3581 21.4259 32.656 20.8015 33.9129C20.5963 32.4218 20.2734 30.9899 19.7786 29.6399C19.2638 28.2356 18.5609 26.9219 17.6128 25.7313ZM24.3146 32.6118C23.4228 33.3869 22.3777 33.9633 21.2474 34.4317C21.2163 34.386 21.1941 34.3316 21.1563 34.2929C21.8392 32.9501 22.3333 31.5584 22.5947 30.1122C22.8429 28.7363 22.8755 27.3075 22.6918 25.8306C22.7044 25.8259 22.7162 25.8235 22.7281 25.818C22.8325 25.7707 22.9221 25.7052 23.0051 25.6343L26.2042 28.3775C26.1034 28.6227 26.0893 28.9058 26.196 29.1708C26.2612 29.3332 26.3693 29.4546 26.4915 29.5555C25.9553 30.8274 25.2168 31.8288 24.3146 32.6118H24.3146Z" fill="#D51C59"/>
</svg>
