<svg width="161" height="36" viewBox="0 0 161 36" fill="none" xmlns="http://www.w3.org/2000/svg">
<path d="M56 0V0.832059H61.4823V14.9333H63.6156V0.832059H69.0979V0H56ZM122.961 0V14.9333H128.486C132.859 14.9333 135.739 11.7546 135.739 7.59464C135.739 3.00799 132.219 0 127.846 0H122.961ZM125.094 0.832059H127.846C131.11 0.832059 133.52 3.47739 133.52 7.61605C133.52 11.5627 131.28 14.1013 128.486 14.1013H125.094V0.832059ZM77.3961 4.54399C75.7748 4.54399 74.3455 5.35461 73.4282 6.63461L72.639 4.69337H71.3803V14.9333H73.4496V9.21595C73.7483 7.08262 75.1562 6.1867 76.6494 6.1867C77.1401 6.1867 77.3961 6.33585 77.3961 6.33585V4.54399ZM96.552 4.54399C93.5016 4.54399 91.3045 6.74125 91.3045 9.81324C91.3045 12.8852 93.5016 15.0827 96.616 15.0827C99.0265 15.0827 101.096 13.8665 101.48 11.6265H99.6025C99.2612 13.5252 98.0881 14.3786 96.7228 14.3786C94.8669 14.3786 93.4376 12.5439 93.4376 9.81324C93.4376 7.10391 94.8669 5.26925 96.7014 5.26925C98.1093 5.26925 99.2612 6.33598 99.6025 7.99998H101.458C101.074 5.86665 98.9839 4.54399 96.552 4.54399ZM108.925 4.54399C105.832 4.54399 103.634 6.74132 103.634 9.83465C103.634 12.8853 105.789 15.0827 109.01 15.0827C111.442 15.0827 113.66 13.824 114.023 11.8187H112.039C111.698 13.2907 110.524 14.3786 109.074 14.3786C107.239 14.3786 105.831 12.6507 105.767 10.048H114.002V9.17337C113.959 6.18671 111.591 4.54399 108.925 4.54399ZM143.226 4.54399C140.155 4.54399 137.957 6.74125 137.957 9.81324C137.957 12.8852 140.155 15.0827 143.226 15.0827C146.298 15.0827 148.495 12.8853 148.495 9.83465C148.495 6.80532 146.298 4.54399 143.226 4.54399ZM155.77 4.54399C152.719 4.54399 150.522 6.74125 150.522 9.81324C150.522 12.8852 152.719 15.0827 155.834 15.0827C158.244 15.0827 160.313 13.8665 160.697 11.6265H158.82C158.479 13.5252 157.305 14.3786 155.94 14.3786C154.084 14.3786 152.655 12.5439 152.655 9.81324C152.655 7.10391 154.084 5.26925 155.919 5.26925C157.327 5.26925 158.479 6.33598 158.82 7.99998H160.676C160.292 5.86665 158.201 4.54399 155.77 4.54399ZM84.1157 4.56539C81.5985 4.56539 79.6999 5.67468 79.6999 7.80801H81.5556C81.5556 6.14401 82.7077 5.33324 84.0942 5.33324C85.7155 5.33324 86.4195 6.37858 86.4195 8.31991V9.32252C85.7582 9.21585 85.0329 9.15196 84.3076 9.15196C81.4918 9.15196 79.3372 9.98389 79.3372 12.1812C79.3372 14.1865 81.1291 15.0827 83.1983 15.0827C84.8408 15.0827 85.9927 14.5279 86.6966 13.5466L87.2087 14.9333H88.4886V8.27732C88.4886 5.888 86.8888 4.56539 84.1157 4.56539ZM108.946 5.26925C110.418 5.26925 111.996 6.91205 112.039 9.17337H105.789C105.981 6.80538 107.346 5.26925 108.946 5.26925ZM143.226 5.26925C145.061 5.26925 146.383 7.12525 146.383 9.81324C146.383 12.5439 145.061 14.3786 143.226 14.3786C141.413 14.3786 140.091 12.5439 140.091 9.81324C140.091 7.08258 141.413 5.26925 143.226 5.26925ZM84.8409 9.89863C85.3955 9.89863 85.9502 9.96261 86.4195 10.0266V11.2852C86.1848 13.2478 85.3314 14.2079 83.7315 14.2079C82.4516 14.2079 81.3211 13.568 81.3211 12.16C81.3211 10.5387 82.793 9.89863 84.8409 9.89863Z" fill="#5176A1"/>
<path d="M85.0341 24.2793C84.9651 24.2793 84.9073 24.2823 84.8606 24.2881C84.8139 24.2941 84.7762 24.3045 84.7478 24.3187C84.7193 24.3329 84.7001 24.35 84.6899 24.3704C84.6798 24.3906 84.675 24.413 84.675 24.4373V32.6492C84.675 32.6736 84.6801 32.6959 84.6899 32.7161C84.7001 32.7363 84.7194 32.7527 84.7478 32.7648C84.7762 32.777 84.8139 32.7869 84.8606 32.795C84.9072 32.8028 84.9651 32.8074 85.0341 32.8074C85.1072 32.8074 85.1672 32.8036 85.2139 32.795C85.2606 32.7872 85.2971 32.7769 85.3235 32.7648C85.3499 32.7527 85.3692 32.7363 85.3814 32.7161C85.3936 32.6959 85.3996 32.6735 85.3996 32.6492V24.4373C85.3996 24.4129 85.3938 24.3906 85.3814 24.3704C85.3692 24.3501 85.3499 24.3329 85.3235 24.3187C85.2971 24.3045 85.2607 24.2942 85.2139 24.2881C85.1672 24.282 85.1072 24.2793 85.0341 24.2793ZM60.9491 24.3098C60.8801 24.3098 60.8222 24.3136 60.7755 24.3219C60.7288 24.3297 60.6911 24.3403 60.6627 24.3525C60.6343 24.3646 60.615 24.381 60.6048 24.4012C60.5946 24.4214 60.5895 24.4438 60.5895 24.4681V27.7881C60.3215 27.4998 60.0494 27.2816 59.7732 27.1333C59.4971 26.9851 59.1927 26.911 58.8597 26.911C58.4739 26.911 58.1346 26.9821 57.8422 27.1242C57.5498 27.2664 57.3042 27.4692 57.1052 27.7332C56.9062 27.9972 56.7562 28.3172 56.6546 28.6929C56.5531 29.0685 56.5022 29.4899 56.5022 29.9569C56.5022 30.3549 56.5429 30.7316 56.6241 31.087C56.7053 31.4423 56.8343 31.7518 57.0109 32.0158C57.1876 32.2798 57.416 32.4889 57.6962 32.6433C57.9764 32.7976 58.3155 32.8747 58.7134 32.8747C59.083 32.8747 59.4241 32.7843 59.7368 32.6036C60.0495 32.4229 60.3521 32.1742 60.6444 31.8575V32.6494C60.6444 32.6779 60.6511 32.7022 60.6656 32.7226C60.6797 32.7429 60.7002 32.7589 60.7266 32.771C60.753 32.7832 60.7874 32.7926 60.83 32.7986C60.8727 32.8047 60.9266 32.8074 60.9916 32.8074C61.0525 32.8074 61.1031 32.8043 61.1437 32.7986C61.1843 32.7926 61.2178 32.7832 61.2442 32.771C61.2705 32.7589 61.289 32.7429 61.2991 32.7226C61.3092 32.7024 61.3144 32.6779 61.3144 32.6494V24.4681C61.3144 24.4437 61.3085 24.4214 61.2962 24.4012C61.284 24.3809 61.2647 24.3646 61.2383 24.3525C61.2118 24.3403 61.1754 24.33 61.1287 24.3219C61.082 24.3141 61.022 24.3098 60.9489 24.3098L60.9491 24.3098ZM63.7143 24.7848C63.5315 24.7848 63.4059 24.8195 63.3368 24.8885C63.2678 24.9576 63.2332 25.0895 63.2332 25.2845C63.2332 25.4794 63.2666 25.6102 63.3336 25.6772C63.4006 25.7443 63.5236 25.778 63.7022 25.778C63.885 25.778 64.011 25.7433 64.08 25.6743C64.149 25.6052 64.1834 25.4733 64.1834 25.2783C64.1834 25.0834 64.1499 24.9526 64.0829 24.8856C64.0159 24.8185 63.893 24.7848 63.7143 24.7848ZM72.3154 24.7848C72.1327 24.7848 72.0067 24.8195 71.9377 24.8885C71.8686 24.9576 71.8343 25.0895 71.8343 25.2845C71.8343 25.4794 71.8678 25.6102 71.9347 25.6772C72.0017 25.7443 72.1247 25.778 72.3034 25.778C72.4861 25.778 72.6118 25.7433 72.6808 25.6743C72.7499 25.6052 72.7845 25.4733 72.7845 25.2783C72.7845 25.0834 72.7511 24.9526 72.6841 24.8856C72.6171 24.8185 72.4941 24.7848 72.3154 24.7848ZM110.192 24.7848C110.009 24.7848 109.883 24.8195 109.814 24.8885C109.745 24.9576 109.71 25.0895 109.71 25.2845C109.71 25.4794 109.744 25.6102 109.811 25.6772C109.878 25.7443 110.001 25.778 110.179 25.778C110.362 25.778 110.488 25.7433 110.557 25.6743C110.626 25.6052 110.661 25.4733 110.661 25.2783C110.661 25.0834 110.627 24.9526 110.56 24.8856C110.493 24.8185 110.37 24.7848 110.192 24.7848ZM75.288 25.4977C75.219 25.4977 75.1612 25.5008 75.1144 25.5065C75.0678 25.5126 75.0301 25.5229 75.0016 25.5371C74.9732 25.5513 74.9539 25.5684 74.9438 25.5888C74.9337 25.6091 74.9285 25.6314 74.9285 25.6558V27.0082H74.1064C74.078 27.0082 74.0524 27.0142 74.03 27.0264C74.0077 27.0386 73.9887 27.0579 73.9724 27.0843C73.9562 27.1107 73.9438 27.1433 73.9357 27.1818C73.9275 27.2204 73.9237 27.2659 73.9237 27.3187C73.9237 27.4202 73.94 27.4965 73.9725 27.5472C74.005 27.598 74.0496 27.6233 74.1064 27.6233H74.9286V31.0529C74.9286 31.3615 74.956 31.6297 75.0108 31.8572C75.0656 32.0846 75.154 32.2724 75.2758 32.4206C75.3976 32.5688 75.554 32.6794 75.7449 32.7525C75.9357 32.8256 76.1672 32.8624 76.4393 32.8624C76.5205 32.8624 76.604 32.8579 76.6892 32.8471C76.7745 32.8369 76.8556 32.8227 76.9327 32.8045C77.0099 32.7863 77.078 32.7637 77.1369 32.7372C77.1957 32.7108 77.2404 32.6825 77.2708 32.6521C77.3013 32.6216 77.3236 32.5801 77.3378 32.5272C77.3521 32.4744 77.3592 32.4054 77.3592 32.3201C77.3592 32.2673 77.3563 32.2237 77.3502 32.1891C77.3444 32.1546 77.3359 32.1263 77.3258 32.104C77.3156 32.0816 77.3024 32.0663 77.2862 32.0582C77.27 32.0504 77.2516 32.0461 77.2312 32.0461C77.1988 32.0461 77.1611 32.0561 77.1184 32.0764C77.0758 32.0966 77.0243 32.1193 76.9633 32.1436C76.9024 32.168 76.8322 32.1903 76.753 32.2105C76.6738 32.2308 76.5855 32.2408 76.4881 32.2408C76.1713 32.2408 75.9531 32.1311 75.8333 31.9118C75.7135 31.6925 75.6536 31.374 75.6536 30.9557V27.6233H77.1763C77.2291 27.6233 77.2728 27.598 77.3073 27.5472C77.3419 27.4965 77.3593 27.4202 77.3593 27.3187C77.3593 27.2659 77.3549 27.2204 77.3469 27.1818C77.3387 27.1432 77.3267 27.1107 77.3105 27.0843C77.2942 27.0579 77.2749 27.0386 77.2526 27.0264C77.2303 27.0143 77.2047 27.0082 77.1763 27.0082H75.6535V25.6558C75.6535 25.6314 75.6477 25.6091 75.6353 25.5889C75.6232 25.5686 75.6039 25.5513 75.5774 25.5371C75.5511 25.5229 75.5143 25.5126 75.4676 25.5065C75.4209 25.5005 75.3612 25.4978 75.2881 25.4978L75.288 25.4977ZM90.8331 25.4977C90.764 25.4977 90.7062 25.5008 90.6595 25.5065C90.6128 25.5126 90.5754 25.5229 90.547 25.5371C90.5185 25.5513 90.4992 25.5684 90.4891 25.5888C90.4789 25.6091 90.4738 25.6314 90.4738 25.6558V27.0082H89.6513C89.6229 27.0082 89.5976 27.0142 89.5753 27.0264C89.553 27.0386 89.5337 27.0579 89.5174 27.0843C89.5012 27.1107 89.489 27.1433 89.481 27.1818C89.4728 27.2204 89.4686 27.2659 89.4686 27.3187C89.4686 27.4202 89.4849 27.4965 89.5174 27.5472C89.55 27.598 89.5945 27.6233 89.6514 27.6233H90.4738V31.0529C90.4738 31.3615 90.5013 31.6297 90.5561 31.8572C90.6109 32.0846 90.6992 32.2724 90.821 32.4206C90.9429 32.5688 91.0993 32.6794 91.2901 32.7525C91.481 32.8256 91.7124 32.8624 91.9845 32.8624C92.0657 32.8624 92.1489 32.8579 92.2342 32.8471C92.3195 32.8369 92.4008 32.8227 92.478 32.8045C92.5552 32.7863 92.623 32.7637 92.6818 32.7372C92.7407 32.7108 92.7853 32.6825 92.8158 32.6521C92.8463 32.6216 92.8688 32.5801 92.8831 32.5272C92.8973 32.4744 92.9042 32.4054 92.9042 32.3201C92.9042 32.2673 92.9013 32.2237 92.8951 32.1891C92.8893 32.1546 92.8809 32.1263 92.8708 32.104C92.8606 32.0816 92.8474 32.0663 92.8312 32.0582C92.8149 32.0504 92.7968 32.0461 92.7766 32.0461C92.7441 32.0461 92.7064 32.0561 92.6638 32.0764C92.6211 32.0966 92.5693 32.1193 92.5084 32.1436C92.4475 32.168 92.3775 32.1903 92.2984 32.2105C92.2192 32.2308 92.1309 32.2408 92.0334 32.2408C91.7167 32.2408 91.4982 32.1311 91.3784 31.9118C91.2586 31.6925 91.1989 31.374 91.1989 30.9557V27.6233H92.7216C92.7745 27.6233 92.8181 27.598 92.8526 27.5472C92.8872 27.4965 92.9043 27.4202 92.9043 27.3187C92.9043 27.2659 92.9006 27.2204 92.8923 27.1818C92.8841 27.1432 92.8718 27.1107 92.8556 27.0843C92.8393 27.0579 92.82 27.0386 92.7977 27.0264C92.7754 27.0143 92.7501 27.0082 92.7217 27.0082H91.1989V25.6558C91.1989 25.6314 91.1931 25.6091 91.1807 25.5889C91.1686 25.5686 91.149 25.5513 91.1226 25.5371C91.0962 25.5229 91.0597 25.5126 91.013 25.5065C90.9663 25.5005 90.9063 25.4978 90.8332 25.4978L90.8331 25.4977ZM143.463 25.4977C143.394 25.4977 143.336 25.5008 143.289 25.5065C143.242 25.5126 143.205 25.5229 143.176 25.5371C143.148 25.5513 143.129 25.5684 143.118 25.5888C143.108 25.6091 143.103 25.6314 143.103 25.6558V27.0082H142.281C142.252 27.0082 142.227 27.0142 142.205 27.0264C142.182 27.0386 142.163 27.0579 142.147 27.0843C142.131 27.1107 142.118 27.1433 142.11 27.1818C142.102 27.2204 142.098 27.2659 142.098 27.3187C142.098 27.4202 142.114 27.4965 142.147 27.5472C142.179 27.598 142.224 27.6233 142.281 27.6233H143.103V31.0529C143.103 31.3615 143.131 31.6297 143.185 31.8572C143.24 32.0846 143.329 32.2724 143.45 32.4206C143.572 32.5688 143.729 32.6794 143.92 32.7525C144.11 32.8256 144.342 32.8624 144.614 32.8624C144.695 32.8624 144.778 32.8579 144.864 32.8471C144.949 32.8369 145.03 32.8227 145.107 32.8045C145.185 32.7863 145.253 32.7637 145.311 32.7372C145.37 32.7108 145.415 32.6825 145.445 32.6521C145.476 32.6216 145.498 32.5801 145.512 32.5272C145.527 32.4744 145.534 32.4054 145.534 32.3201C145.534 32.2673 145.531 32.2237 145.525 32.1891C145.518 32.1546 145.511 32.1263 145.5 32.104C145.49 32.0816 145.477 32.0663 145.461 32.0582C145.445 32.0504 145.426 32.0461 145.406 32.0461C145.373 32.0461 145.336 32.0561 145.293 32.0764C145.25 32.0966 145.199 32.1193 145.138 32.1436C145.077 32.168 145.007 32.1903 144.928 32.2105C144.848 32.2308 144.76 32.2408 144.663 32.2408C144.346 32.2408 144.128 32.1311 144.008 31.9118C143.888 31.6925 143.828 31.374 143.828 30.9557V27.6233H145.351C145.404 27.6233 145.447 27.598 145.482 27.5472C145.517 27.4965 145.534 27.4202 145.534 27.3187C145.534 27.2659 145.529 27.2204 145.522 27.1818C145.514 27.1432 145.501 27.1107 145.485 27.0843C145.469 27.0579 145.45 27.0386 145.427 27.0264C145.405 27.0143 145.38 27.0082 145.351 27.0082H143.828V25.6558C143.828 25.6314 143.822 25.6091 143.81 25.5889C143.798 25.5686 143.779 25.5513 143.752 25.5371C143.726 25.5229 143.689 25.5126 143.643 25.5065C143.596 25.5005 143.536 25.4978 143.463 25.4978L143.463 25.4977ZM67.8627 26.911C67.5622 26.911 67.2859 26.9564 67.0341 27.0479C66.7823 27.1393 66.5662 27.2703 66.3855 27.4409C66.2048 27.6115 66.0638 27.8197 65.9622 28.0654C65.8607 28.3111 65.8098 28.5881 65.8098 28.8967C65.8098 29.1526 65.8423 29.372 65.9073 29.5548C65.9723 29.7375 66.0636 29.906 66.1814 30.0603C66.0433 30.2146 65.9255 30.3882 65.828 30.5811C65.7305 30.774 65.682 30.9964 65.682 31.2482C65.682 31.4188 65.7305 31.5791 65.828 31.7294C65.9255 31.8797 66.0779 32.0077 66.2851 32.1133C66.1551 32.223 66.0403 32.3306 65.9408 32.4362C65.8413 32.5418 65.7581 32.6515 65.6911 32.7652C65.6241 32.8789 65.5744 32.9985 65.5419 33.1244C65.5094 33.2503 65.4932 33.3844 65.4932 33.5266C65.4932 33.7337 65.5368 33.9266 65.6242 34.1053C65.7115 34.284 65.8516 34.4392 66.0445 34.5712C66.2374 34.7032 66.4851 34.8068 66.7877 34.882C67.0902 34.9571 67.4567 34.9948 67.8871 34.9948C68.3379 34.9948 68.7257 34.9451 69.0506 34.8455C69.3755 34.746 69.6425 34.6119 69.8516 34.4434C70.0608 34.2748 70.215 34.079 70.3145 33.8556C70.414 33.6322 70.4638 33.3987 70.4638 33.155C70.4638 32.9194 70.415 32.7142 70.3175 32.5396C70.22 32.365 70.088 32.2179 69.9215 32.0981C69.755 31.9783 69.5613 31.8878 69.3399 31.8269C69.1186 31.766 68.882 31.7316 68.6303 31.7235L67.1378 31.6624C66.9023 31.6546 66.7103 31.5976 66.5621 31.492C66.4139 31.3865 66.3397 31.2563 66.3397 31.1019C66.3397 30.9638 66.3662 30.8421 66.419 30.7365C66.4718 30.6309 66.5387 30.5375 66.6199 30.4563C66.7458 30.5578 66.9206 30.6431 67.144 30.7121C67.3673 30.7812 67.6027 30.8158 67.8504 30.8158C68.155 30.8158 68.4331 30.7709 68.6849 30.6816C68.9367 30.5922 69.154 30.4635 69.3367 30.295C69.5194 30.1265 69.6608 29.9203 69.7603 29.6766C69.8598 29.433 69.9095 29.1548 69.9095 28.8421C69.9095 28.6147 69.8757 28.3983 69.8087 28.1932C69.7417 27.9881 69.623 27.7982 69.4524 27.6236H70.3236C70.3805 27.6236 70.4272 27.6013 70.4638 27.5567C70.5003 27.512 70.5184 27.4327 70.5184 27.319C70.5184 27.2175 70.5034 27.1404 70.4729 27.0876C70.4425 27.0348 70.3927 27.0085 70.3237 27.0085H68.6973C68.5795 26.9801 68.4506 26.9566 68.3104 26.9383C68.1704 26.9201 68.0212 26.911 67.8628 26.911L67.8627 26.911ZM80.6302 26.911C80.4353 26.911 80.2403 26.9291 80.0454 26.9657C79.8504 27.0022 79.6687 27.0501 79.5002 27.109C79.3317 27.1679 79.1825 27.2318 79.0525 27.3008C78.9226 27.3699 78.8322 27.4299 78.7814 27.4806C78.7306 27.5314 78.699 27.582 78.6868 27.6328C78.6746 27.6835 78.6686 27.7517 78.6686 27.8369C78.6686 27.8857 78.6716 27.9273 78.6777 27.9618C78.6835 27.9963 78.6941 28.0246 78.7082 28.0469C78.7224 28.0692 78.7396 28.0846 78.76 28.0927C78.7803 28.1005 78.8026 28.1048 78.8269 28.1048C78.8675 28.1048 78.9357 28.0756 79.0311 28.0167C79.1265 27.9579 79.2474 27.8918 79.3936 27.8187C79.5397 27.7456 79.7103 27.6796 79.9052 27.6207C80.1002 27.5619 80.3196 27.5324 80.5632 27.5324C80.815 27.5324 81.0281 27.5628 81.2027 27.6238C81.3773 27.6846 81.5195 27.776 81.6292 27.8978C81.7388 28.0197 81.8178 28.171 81.8665 28.3517C81.9152 28.5324 81.9397 28.7407 81.9397 28.9762V29.4512H81.0626C80.6646 29.4512 80.3033 29.4889 79.9784 29.564C79.6535 29.6392 79.3754 29.7519 79.1439 29.9021C78.9124 30.0524 78.7337 30.2401 78.6078 30.4655C78.482 30.6909 78.419 30.9561 78.419 31.2607C78.419 31.5084 78.4615 31.7318 78.5467 31.9308C78.632 32.1298 78.7541 32.2991 78.9124 32.4392C79.0708 32.5794 79.2646 32.687 79.494 32.7621C79.7235 32.8372 79.9823 32.8749 80.2707 32.8749C80.5915 32.8749 80.9013 32.8016 81.1998 32.6555C81.4982 32.5093 81.7713 32.3022 82.019 32.0342V32.6496C82.019 32.6902 82.0322 32.7216 82.0586 32.7439C82.085 32.7662 82.1224 32.7825 82.1711 32.7926C82.2198 32.8027 82.2789 32.8079 82.3479 32.8079C82.421 32.8079 82.4789 32.8034 82.5215 32.7926C82.5642 32.7825 82.5985 32.7662 82.6249 32.7439C82.6513 32.7216 82.6645 32.6902 82.6645 32.6496V28.9213C82.6645 28.6045 82.6302 28.3212 82.5611 28.0714C82.4921 27.8217 82.3773 27.6116 82.2169 27.441C82.0565 27.2705 81.8464 27.1394 81.5865 27.048C81.3266 26.9566 81.0078 26.9111 80.6301 26.9111L80.6302 26.911ZM96.5715 26.911C96.4496 26.911 96.3309 26.9251 96.2152 26.9536C96.0994 26.9821 95.9807 27.0359 95.8589 27.1151C95.737 27.1944 95.609 27.3049 95.4749 27.4471C95.3409 27.5892 95.1948 27.7761 95.0364 28.0076V27.1363C95.0364 27.112 95.0313 27.0896 95.0211 27.0694C95.0109 27.0491 94.9938 27.0318 94.9695 27.0176C94.9451 27.0034 94.9105 26.9932 94.8658 26.987C94.8211 26.981 94.7645 26.9783 94.6954 26.9783C94.6264 26.9783 94.5707 26.9813 94.528 26.987C94.4854 26.9931 94.4498 27.0034 94.4214 27.0176C94.393 27.0318 94.3737 27.049 94.3636 27.0694C94.3534 27.0896 94.3483 27.112 94.3483 27.1363V32.6494C94.3483 32.6738 94.3534 32.6961 94.3636 32.7164C94.3738 32.7366 94.393 32.753 94.4214 32.7651C94.4498 32.7772 94.4872 32.7872 94.5339 32.7953C94.5805 32.8031 94.6384 32.8077 94.7075 32.8077C94.7806 32.8077 94.8405 32.8039 94.8872 32.7953C94.934 32.7875 94.9704 32.7772 94.9968 32.7651C95.0232 32.7529 95.0425 32.7366 95.0547 32.7164C95.0669 32.6961 95.0732 32.6738 95.0732 32.6494V28.9211C95.2275 28.6734 95.3685 28.4642 95.4964 28.2937C95.6244 28.1231 95.7461 27.9863 95.8619 27.8827C95.9776 27.7792 96.0882 27.7038 96.1938 27.6571C96.2994 27.6104 96.407 27.5872 96.5166 27.5872C96.61 27.5872 96.6953 27.5959 96.7724 27.6144C96.8496 27.6327 96.9207 27.652 96.9857 27.6723C97.0506 27.6925 97.1076 27.7119 97.1563 27.7301C97.2051 27.7485 97.2476 27.7574 97.2841 27.7574C97.3085 27.7574 97.3278 27.7506 97.3419 27.7363C97.3562 27.7221 97.3685 27.7016 97.3786 27.6752C97.389 27.6487 97.3959 27.6144 97.3998 27.5718C97.4035 27.5291 97.4056 27.4772 97.4056 27.4164H97.4059C97.4059 27.3555 97.4051 27.3057 97.4029 27.2671C97.4007 27.2285 97.3971 27.1982 97.3909 27.1757C97.3851 27.1534 97.3775 27.135 97.3695 27.1208C97.3613 27.1066 97.3451 27.0902 97.3208 27.072C97.2964 27.0538 97.2527 27.0335 97.1897 27.0112C97.1268 26.9889 97.0557 26.9696 96.9765 26.9534C96.8973 26.9371 96.8232 26.926 96.7541 26.9198C96.6851 26.9138 96.6242 26.9111 96.5714 26.9111L96.5715 26.911ZM100.476 26.911C100.281 26.911 100.086 26.9291 99.891 26.9657C99.696 27.0022 99.5143 27.0501 99.3458 27.109C99.1773 27.1679 99.0281 27.2318 98.8981 27.3008C98.7682 27.3699 98.6778 27.4299 98.627 27.4806C98.5762 27.5314 98.5449 27.582 98.5327 27.6328C98.5206 27.6835 98.5142 27.7517 98.5142 27.8369C98.5142 27.8857 98.5172 27.9273 98.5236 27.9618C98.5294 27.9963 98.5396 28.0246 98.5538 28.0469C98.568 28.0692 98.5855 28.0846 98.6059 28.0927C98.6262 28.1005 98.6485 28.1048 98.6729 28.1048C98.7134 28.1048 98.7813 28.0756 98.8767 28.0167C98.9721 27.9579 99.093 27.8918 99.2392 27.8187C99.3854 27.7456 99.5559 27.6796 99.7509 27.6207C99.9458 27.5619 100.165 27.5324 100.409 27.5324C100.661 27.5324 100.874 27.5628 101.048 27.6238C101.223 27.6846 101.365 27.776 101.475 27.8978C101.584 28.0197 101.664 28.171 101.712 28.3517C101.761 28.5324 101.786 28.7407 101.786 28.9762V29.4512H100.908C100.51 29.4512 100.149 29.4889 99.8241 29.564C99.4992 29.6392 99.221 29.7519 98.9896 29.9021C98.7581 30.0524 98.5794 30.2401 98.4535 30.4655C98.3276 30.6909 98.2646 30.9561 98.2646 31.2607C98.2646 31.5084 98.3074 31.7318 98.3927 31.9308C98.478 32.1298 98.5997 32.2991 98.7581 32.4392C98.9165 32.5794 99.1103 32.687 99.3397 32.7621C99.5691 32.8372 99.828 32.8749 100.116 32.8749C100.437 32.8749 100.747 32.8016 101.045 32.6555C101.344 32.5093 101.617 32.3022 101.865 32.0342V32.6496C101.865 32.6902 101.878 32.7216 101.904 32.7439C101.931 32.7662 101.968 32.7825 102.017 32.7926C102.066 32.8027 102.125 32.8079 102.194 32.8079C102.267 32.8079 102.325 32.8034 102.367 32.7926C102.41 32.7825 102.444 32.7662 102.471 32.7439C102.497 32.7216 102.511 32.6902 102.511 32.6496L102.51 28.9213C102.51 28.6045 102.476 28.3212 102.407 28.0714C102.338 27.8217 102.223 27.6116 102.063 27.441C101.902 27.2705 101.692 27.1394 101.432 27.048C101.172 26.9566 100.853 26.9111 100.476 26.9111L100.476 26.911ZM106.573 26.911C106.232 26.911 105.913 26.9688 105.614 27.0846C105.316 27.2003 105.055 27.3799 104.831 27.6236C104.608 27.8673 104.433 28.1801 104.305 28.5619C104.177 28.9436 104.113 29.4023 104.113 29.9384C104.113 30.4135 104.164 30.8331 104.268 31.1965C104.371 31.56 104.523 31.8665 104.722 32.1163C104.921 32.366 105.168 32.555 105.462 32.6829C105.756 32.8109 106.094 32.8747 106.476 32.8747C106.667 32.8747 106.852 32.8554 107.03 32.8169C107.209 32.7783 107.376 32.7286 107.53 32.6677C107.684 32.6068 107.823 32.5356 107.947 32.4544C108.071 32.3732 108.159 32.3063 108.212 32.2535C108.265 32.2007 108.298 32.1631 108.313 32.1407C108.327 32.1183 108.338 32.093 108.346 32.0646C108.354 32.0361 108.36 32.0027 108.364 31.9641C108.368 31.9255 108.37 31.8819 108.37 31.8331H108.37C108.37 31.7763 108.367 31.7265 108.361 31.6839C108.356 31.6412 108.346 31.6047 108.334 31.5743C108.322 31.5438 108.306 31.5212 108.288 31.5071C108.27 31.4929 108.249 31.4859 108.224 31.4859C108.179 31.4859 108.111 31.5245 108.02 31.6017C107.929 31.6788 107.814 31.7641 107.676 31.8575C107.538 31.951 107.375 32.0362 107.188 32.1134C107.002 32.1905 106.787 32.2291 106.543 32.2291C106.283 32.2291 106.049 32.1815 105.842 32.0861C105.635 31.9907 105.459 31.8463 105.315 31.6534C105.171 31.4605 105.061 31.2188 104.983 30.9284C104.906 30.638 104.868 30.3002 104.868 29.9143C104.868 29.1468 105.011 28.5597 105.297 28.1536C105.583 27.7475 105.991 27.5446 106.518 27.5446C106.774 27.5446 106.995 27.581 107.179 27.6542C107.364 27.7273 107.521 27.8075 107.651 27.8948C107.781 27.9821 107.888 28.0623 107.971 28.1354C108.055 28.2085 108.124 28.245 108.181 28.245C108.222 28.245 108.26 28.2218 108.294 28.175C108.329 28.1283 108.346 28.046 108.346 27.9283C108.346 27.8755 108.343 27.8297 108.34 27.7911C108.336 27.7525 108.329 27.7172 108.319 27.6847C108.309 27.6523 108.295 27.6227 108.276 27.5964C108.258 27.5699 108.223 27.5314 108.173 27.4806C108.122 27.4299 108.042 27.3678 107.932 27.2947C107.822 27.2216 107.698 27.1568 107.557 27.0999C107.417 27.0431 107.264 26.9973 107.097 26.9627C106.931 26.9282 106.756 26.911 106.573 26.911L106.573 26.911ZM115.107 26.911C114.807 26.911 114.504 26.9902 114.2 27.1486C113.895 27.307 113.584 27.5629 113.268 27.9162V27.1363C113.268 27.1119 113.263 27.0896 113.252 27.0694C113.242 27.0491 113.225 27.0318 113.201 27.0176C113.176 27.0034 113.142 26.9932 113.097 26.987C113.052 26.981 112.996 26.9783 112.927 26.9783C112.858 26.9783 112.802 26.9813 112.759 26.987C112.716 26.9931 112.681 27.0034 112.652 27.0176C112.624 27.0318 112.605 27.049 112.594 27.0694C112.584 27.0896 112.579 27.112 112.579 27.1363V32.6494C112.579 32.6738 112.585 32.6961 112.594 32.7164C112.605 32.7366 112.624 32.753 112.652 32.7651C112.681 32.7772 112.718 32.7872 112.765 32.7953C112.812 32.8031 112.87 32.8077 112.939 32.8077C113.012 32.8077 113.072 32.8039 113.118 32.7953C113.165 32.7875 113.202 32.7772 113.228 32.7651C113.254 32.7529 113.274 32.7366 113.286 32.7164C113.298 32.6961 113.304 32.6738 113.304 32.6494V28.6958C113.613 28.31 113.907 28.0177 114.187 27.8187C114.468 27.6197 114.748 27.5202 115.028 27.5202C115.247 27.5202 115.439 27.5618 115.604 27.6451C115.768 27.7283 115.903 27.8462 116.009 27.9985C116.114 28.1507 116.194 28.3334 116.246 28.5466C116.299 28.7598 116.325 29.0371 116.325 29.3782V32.6494C116.325 32.6738 116.332 32.6961 116.344 32.7164C116.356 32.7366 116.375 32.753 116.402 32.7651C116.428 32.7772 116.465 32.7872 116.511 32.7953C116.558 32.8031 116.618 32.8077 116.691 32.8077C116.76 32.8077 116.818 32.8039 116.865 32.7953C116.912 32.7875 116.948 32.7772 116.974 32.7651C117.001 32.7529 117.02 32.7366 117.032 32.7164C117.044 32.6961 117.05 32.6738 117.05 32.6494V29.3109C117.05 28.9211 117.017 28.5883 116.95 28.3122C116.883 28.036 116.773 27.7943 116.621 27.5872C116.469 27.3801 116.269 27.2155 116.021 27.0937C115.773 26.9719 115.469 26.911 115.107 26.911H115.107ZM120.821 26.911C120.521 26.911 120.244 26.9564 119.993 27.0479C119.741 27.1393 119.525 27.2703 119.344 27.4409C119.163 27.6115 119.022 27.8197 118.921 28.0654C118.819 28.3111 118.768 28.5881 118.768 28.8967C118.768 29.1526 118.801 29.372 118.866 29.5548C118.931 29.7375 119.022 29.906 119.14 30.0603C119.002 30.2146 118.884 30.3882 118.787 30.5811C118.689 30.774 118.64 30.9964 118.64 31.2482C118.64 31.4188 118.689 31.5791 118.787 31.7294C118.884 31.8797 119.036 32.0077 119.243 32.1133C119.113 32.223 118.999 32.3306 118.899 32.4362C118.8 32.5418 118.716 32.6515 118.649 32.7652C118.582 32.8789 118.533 32.9985 118.5 33.1244C118.468 33.2503 118.451 33.3844 118.451 33.5266C118.451 33.7337 118.495 33.9266 118.582 34.1053C118.67 34.284 118.81 34.4392 119.003 34.5712C119.196 34.7032 119.443 34.8068 119.746 34.882C120.048 34.9571 120.415 34.9948 120.845 34.9948C121.296 34.9948 121.684 34.9451 122.009 34.8455C122.334 34.746 122.601 34.6119 122.81 34.4434C123.019 34.2748 123.173 34.079 123.273 33.8556C123.372 33.6322 123.422 33.3987 123.422 33.155C123.422 32.9194 123.373 32.7142 123.276 32.5396C123.178 32.365 123.046 32.2179 122.88 32.0981C122.713 31.9783 122.52 31.8878 122.298 31.8269C122.077 31.766 121.84 31.7316 121.589 31.7235L120.096 31.6624C119.861 31.6546 119.669 31.5976 119.521 31.492C119.372 31.3865 119.298 31.2563 119.298 31.1019C119.298 30.9638 119.324 30.8421 119.377 30.7365C119.43 30.6309 119.497 30.5375 119.579 30.4563C119.704 30.5578 119.879 30.6431 120.102 30.7121C120.326 30.7812 120.561 30.8158 120.809 30.8158C121.114 30.8158 121.392 30.7709 121.643 30.6816C121.895 30.5922 122.112 30.4635 122.295 30.295C122.478 30.1265 122.619 29.9203 122.719 29.6766C122.818 29.433 122.868 29.1548 122.868 28.8421C122.868 28.6147 122.834 28.3983 122.767 28.1932C122.7 27.9881 122.582 27.7982 122.411 27.6236H123.282C123.339 27.6236 123.385 27.6013 123.422 27.5567C123.459 27.512 123.477 27.4327 123.477 27.319C123.477 27.2175 123.462 27.1404 123.431 27.0876C123.401 27.0348 123.351 27.0085 123.282 27.0085H121.655C121.538 26.9801 121.409 26.9566 121.269 26.9383C121.129 26.9201 120.979 26.911 120.821 26.911L120.821 26.911ZM129.3 26.911C128.975 26.911 128.694 26.9556 128.457 27.0449C128.219 27.1343 128.024 27.2521 127.872 27.3983C127.72 27.5445 127.607 27.71 127.534 27.8947C127.461 28.0795 127.424 28.2673 127.424 28.4582C127.424 28.6978 127.465 28.903 127.546 29.0736C127.627 29.2441 127.734 29.3903 127.866 29.5122C127.998 29.634 128.148 29.7374 128.317 29.8227C128.485 29.9079 128.657 29.9863 128.834 30.0574C129.011 30.1284 129.183 30.1974 129.352 30.2645C129.521 30.3315 129.671 30.4086 129.803 30.4959C129.935 30.5832 130.041 30.6857 130.122 30.8035C130.204 30.9213 130.244 31.0656 130.244 31.2362C130.244 31.4068 130.213 31.556 130.15 31.6839C130.087 31.8118 129.999 31.9164 129.885 31.9976C129.771 32.0789 129.637 32.1397 129.483 32.1803C129.329 32.2209 129.158 32.2411 128.971 32.2411C128.74 32.2411 128.536 32.2128 128.359 32.156C128.183 32.0991 128.03 32.037 127.902 31.97C127.774 31.9029 127.668 31.8412 127.583 31.7843C127.497 31.7275 127.432 31.6992 127.387 31.6992C127.363 31.6992 127.341 31.706 127.32 31.7203C127.3 31.7345 127.284 31.7559 127.272 31.7844C127.26 31.8129 127.249 31.8475 127.241 31.8881C127.233 31.9287 127.229 31.9751 127.229 32.0279C127.229 32.1294 127.239 32.2108 127.26 32.2717C127.28 32.3326 127.312 32.3833 127.357 32.4239C127.402 32.4645 127.472 32.5112 127.567 32.564C127.663 32.6168 127.779 32.6665 127.917 32.7132C128.055 32.7599 128.21 32.7985 128.38 32.829C128.551 32.8595 128.732 32.8747 128.923 32.8747C129.227 32.8747 129.505 32.8361 129.757 32.759C130.009 32.6818 130.225 32.57 130.406 32.4238C130.587 32.2776 130.726 32.1001 130.823 31.891C130.92 31.6818 130.969 31.4452 130.969 31.1813H130.969C130.969 30.9498 130.928 30.7518 130.847 30.5873C130.766 30.4228 130.658 30.2818 130.524 30.164C130.39 30.0462 130.238 29.9456 130.067 29.8623C129.897 29.7791 129.723 29.7031 129.546 29.6341C129.37 29.565 129.196 29.4957 129.026 29.4267C128.855 29.3576 128.703 29.2787 128.569 29.1893C128.435 29.1 128.327 28.9942 128.246 28.8724C128.165 28.7505 128.124 28.6004 128.124 28.4217C128.124 28.2918 128.148 28.1718 128.194 28.0622C128.241 27.9525 128.311 27.8573 128.404 27.7761C128.498 27.6948 128.617 27.6319 128.761 27.5872C128.905 27.5426 129.072 27.5203 129.263 27.5203C129.454 27.5203 129.623 27.5426 129.769 27.5872C129.915 27.6319 130.041 27.6804 130.147 27.7332C130.252 27.786 130.337 27.8348 130.402 27.8795C130.467 27.9241 130.516 27.9464 130.549 27.9464C130.573 27.9464 130.594 27.9396 130.613 27.9253C130.631 27.9111 130.646 27.8896 130.658 27.8612C130.67 27.8327 130.68 27.7993 130.686 27.7607C130.692 27.7222 130.695 27.6785 130.695 27.6297C130.695 27.581 130.693 27.5394 130.689 27.5049C130.685 27.4704 130.68 27.4409 130.674 27.4165C130.668 27.3922 130.658 27.3689 130.643 27.3466C130.629 27.3243 130.601 27.2968 130.558 27.2643C130.515 27.2318 130.454 27.1942 130.372 27.1515C130.291 27.1089 130.195 27.0694 130.083 27.0329C129.971 26.9963 129.848 26.9668 129.712 26.9445C129.576 26.9222 129.438 26.9109 129.3 26.9109L129.3 26.911ZM139.625 26.911C139.3 26.911 139.019 26.9556 138.781 27.0449C138.544 27.1343 138.349 27.2521 138.197 27.3983C138.044 27.5445 137.932 27.71 137.859 27.8947C137.785 28.0795 137.749 28.2673 137.749 28.4582C137.749 28.6978 137.79 28.903 137.871 29.0736C137.952 29.2441 138.058 29.3903 138.19 29.5122C138.322 29.634 138.473 29.7374 138.641 29.8227C138.81 29.9079 138.983 29.9863 139.159 30.0574C139.336 30.1284 139.508 30.1974 139.677 30.2645C139.845 30.3315 139.996 30.4086 140.128 30.4959C140.26 30.5832 140.366 30.6857 140.448 30.8035C140.529 30.9213 140.569 31.0656 140.569 31.2362C140.569 31.4068 140.538 31.556 140.475 31.6839C140.412 31.8118 140.324 31.9164 140.21 31.9976C140.096 32.0789 139.962 32.1397 139.808 32.1803C139.653 32.2209 139.483 32.2411 139.296 32.2411C139.065 32.2411 138.861 32.2128 138.684 32.156C138.507 32.0991 138.355 32.037 138.227 31.97C138.099 31.9029 137.993 31.8412 137.907 31.7843C137.822 31.7275 137.757 31.6992 137.712 31.6992C137.688 31.6992 137.666 31.706 137.645 31.7203C137.625 31.7345 137.609 31.7559 137.597 31.7844C137.584 31.8129 137.574 31.8475 137.566 31.8881C137.558 31.9287 137.554 31.9751 137.554 32.0279C137.554 32.1294 137.564 32.2108 137.585 32.2717C137.605 32.3326 137.637 32.3833 137.682 32.4239C137.727 32.4645 137.797 32.5112 137.892 32.564C137.988 32.6168 138.104 32.6665 138.243 32.7132C138.381 32.7599 138.535 32.7985 138.705 32.829C138.876 32.8595 139.057 32.8747 139.247 32.8747C139.552 32.8747 139.83 32.8361 140.082 32.759C140.334 32.6818 140.55 32.57 140.731 32.4238C140.911 32.2776 141.051 32.1001 141.148 31.891C141.246 31.6818 141.294 31.4452 141.294 31.1813H141.294C141.294 30.9498 141.253 30.7518 141.172 30.5873C141.091 30.4228 140.983 30.2818 140.849 30.164C140.715 30.0462 140.563 29.9456 140.392 29.8623C140.222 29.7791 140.048 29.7031 139.871 29.6341C139.695 29.565 139.521 29.4957 139.35 29.4267C139.18 29.3576 139.028 29.2787 138.894 29.1893C138.76 29.1 138.652 28.9942 138.571 28.8724C138.49 28.7505 138.449 28.6004 138.449 28.4217C138.449 28.2918 138.472 28.1718 138.519 28.0622C138.566 27.9525 138.636 27.8573 138.729 27.7761C138.823 27.6948 138.941 27.6319 139.086 27.5872C139.23 27.5426 139.397 27.5203 139.588 27.5203C139.779 27.5203 139.947 27.5426 140.094 27.5872C140.24 27.6319 140.366 27.6804 140.471 27.7332C140.577 27.786 140.662 27.8348 140.727 27.8795C140.792 27.9241 140.841 27.9464 140.874 27.9464C140.898 27.9464 140.919 27.9396 140.938 27.9253C140.956 27.9111 140.971 27.8896 140.983 27.8612C140.995 27.8327 141.005 27.7993 141.011 27.7607C141.017 27.7222 141.02 27.6785 141.02 27.6297C141.02 27.581 141.017 27.5394 141.014 27.5049C141.01 27.4704 141.004 27.4409 140.998 27.4165C140.992 27.3922 140.982 27.3689 140.968 27.3466C140.954 27.3243 140.925 27.2968 140.883 27.2643C140.84 27.2318 140.778 27.1942 140.697 27.1515C140.616 27.1089 140.519 27.0694 140.408 27.0329C140.296 26.9963 140.172 26.9668 140.036 26.9445C139.9 26.9222 139.763 26.9109 139.625 26.9109L139.625 26.911ZM149.146 26.911C148.76 26.911 148.41 26.9791 148.095 27.1151C147.781 27.2512 147.512 27.448 147.288 27.7059C147.065 27.9638 146.893 28.2775 146.774 28.6471C146.654 29.0166 146.594 29.4349 146.594 29.902C146.594 30.3893 146.652 30.8179 146.768 31.1874C146.883 31.557 147.053 31.8665 147.276 32.1163C147.5 32.366 147.776 32.555 148.105 32.6829C148.434 32.8109 148.811 32.8747 149.238 32.8747C149.497 32.8747 149.74 32.8546 149.965 32.8139C150.191 32.7733 150.389 32.7275 150.559 32.6768C150.73 32.626 150.868 32.5754 150.974 32.5246C151.079 32.4738 151.142 32.4383 151.162 32.418C151.183 32.3977 151.199 32.3771 151.211 32.3569C151.223 32.3366 151.233 32.3155 151.239 32.2931C151.245 32.2708 151.25 32.2464 151.254 32.2199C151.257 32.1935 151.26 32.1661 151.26 32.1377C151.26 32.0768 151.257 32.0258 151.251 31.9852C151.245 31.9446 151.236 31.9111 151.223 31.8848C151.211 31.8583 151.195 31.8391 151.175 31.8269C151.154 31.8147 151.132 31.8087 151.108 31.8087C151.067 31.8087 150.999 31.8311 150.903 31.8756C150.808 31.9203 150.686 31.97 150.538 32.0249C150.39 32.0797 150.214 32.1294 150.011 32.1741C149.808 32.2187 149.578 32.241 149.323 32.241C148.961 32.241 148.657 32.1883 148.409 32.0827C148.161 31.9771 147.96 31.8258 147.806 31.6288C147.652 31.4318 147.541 31.1953 147.474 30.9191C147.407 30.643 147.373 30.3343 147.373 29.9932H151.132C151.205 29.9932 151.28 29.9657 151.357 29.911C151.434 29.8561 151.473 29.7558 151.473 29.6096L151.473 29.4633C151.473 29.1222 151.43 28.7973 151.342 28.4886C151.255 28.18 151.117 27.9087 150.928 27.6752C150.739 27.4417 150.499 27.2561 150.206 27.118C149.914 26.9799 149.561 26.9109 149.146 26.9109L149.146 26.911ZM155.578 26.911C155.298 26.911 155.016 26.9902 154.732 27.1486C154.447 27.307 154.147 27.5629 153.83 27.9162V27.1363C153.83 27.1119 153.826 27.0896 153.815 27.0694C153.805 27.0491 153.787 27.0318 153.763 27.0176C153.739 27.0034 153.704 26.9932 153.659 26.987C153.615 26.981 153.558 26.9783 153.489 26.9783C153.42 26.9783 153.364 26.9813 153.321 26.987C153.279 26.9931 153.243 27.0034 153.215 27.0176C153.187 27.0318 153.167 27.049 153.157 27.0694C153.147 27.0896 153.141 27.112 153.141 27.1363V32.6494C153.141 32.6738 153.147 32.6961 153.157 32.7164C153.167 32.7366 153.186 32.753 153.215 32.7651C153.243 32.7772 153.281 32.7872 153.327 32.7953C153.374 32.8031 153.432 32.8077 153.501 32.8077C153.574 32.8077 153.634 32.8039 153.681 32.7953C153.728 32.7875 153.764 32.7772 153.79 32.7651C153.817 32.7529 153.836 32.7366 153.848 32.7164C153.86 32.6961 153.867 32.6738 153.867 32.6494V28.6958C154.175 28.31 154.46 28.0177 154.722 27.8187C154.984 27.6197 155.243 27.5202 155.499 27.5202C155.706 27.5202 155.886 27.5618 156.038 27.6451C156.191 27.7283 156.316 27.8462 156.416 27.9985C156.515 28.1507 156.589 28.3334 156.638 28.5466C156.687 28.7598 156.711 28.9964 156.711 29.2563V32.6494C156.711 32.6738 156.716 32.6961 156.727 32.7164C156.737 32.7366 156.756 32.753 156.785 32.7651C156.813 32.7772 156.851 32.7872 156.897 32.7953C156.944 32.8031 157.002 32.8077 157.071 32.8077C157.14 32.8077 157.198 32.8039 157.245 32.7953C157.291 32.7875 157.328 32.7772 157.354 32.7651C157.381 32.7529 157.4 32.7366 157.412 32.7164C157.424 32.6961 157.43 32.6738 157.43 32.6494V28.6958C157.743 28.31 158.03 28.0177 158.292 27.8187C158.554 27.6197 158.813 27.5202 159.069 27.5202C159.276 27.5202 159.456 27.5618 159.608 27.6451C159.76 27.7283 159.886 27.8462 159.986 27.9985C160.085 28.1507 160.158 28.3334 160.205 28.5466C160.252 28.7598 160.275 28.9964 160.275 29.2563V32.6494C160.275 32.6738 160.28 32.6961 160.29 32.7164C160.3 32.7366 160.32 32.753 160.348 32.7651C160.377 32.7772 160.414 32.7872 160.461 32.7953C160.507 32.8031 160.567 32.8077 160.64 32.8077C160.709 32.8077 160.767 32.8039 160.814 32.7953C160.861 32.7875 160.897 32.7772 160.924 32.7651C160.95 32.7529 160.969 32.7366 160.981 32.7164C160.994 32.6961 161 32.6738 161 32.6494L161 29.1893C161 28.8807 160.968 28.5883 160.905 28.3122C160.842 28.036 160.739 27.7943 160.595 27.5872C160.45 27.3801 160.26 27.2155 160.022 27.0937C159.785 26.9719 159.493 26.911 159.148 26.911C159.01 26.911 158.87 26.9302 158.728 26.9688C158.585 27.0074 158.438 27.0704 158.286 27.1577C158.134 27.245 157.973 27.3608 157.805 27.5049C157.636 27.6491 157.456 27.8266 157.266 28.0378C157.205 27.8713 157.125 27.7191 157.028 27.581C156.931 27.4429 156.813 27.3242 156.675 27.2247C156.537 27.1252 156.377 27.048 156.197 26.9932C156.016 26.9384 155.81 26.911 155.578 26.911H155.578ZM63.7084 26.9779C63.6394 26.9779 63.5815 26.9809 63.5348 26.9867C63.4881 26.9927 63.4504 27.003 63.422 27.0172C63.3935 27.0314 63.3743 27.0486 63.3642 27.069C63.354 27.0892 63.3489 27.1116 63.3489 27.1359V32.6491C63.3489 32.6735 63.3541 32.6957 63.3642 32.716C63.3744 32.7362 63.3936 32.7526 63.422 32.7647C63.4505 32.7769 63.4881 32.7868 63.5348 32.7949C63.5815 32.8027 63.6394 32.8073 63.7084 32.8073C63.7815 32.8073 63.8412 32.8035 63.8879 32.7949C63.9346 32.7871 63.9714 32.7768 63.9977 32.7647C64.0242 32.7525 64.0435 32.7362 64.0556 32.716C64.0678 32.6957 64.0738 32.6734 64.0738 32.6491V27.1359C64.0738 27.1116 64.068 27.0892 64.0556 27.069C64.0435 27.0487 64.0242 27.0314 63.9977 27.0172C63.9714 27.003 63.9346 26.9928 63.8879 26.9867C63.8412 26.9806 63.7815 26.9779 63.7084 26.9779ZM72.3093 26.9779C72.2402 26.9779 72.1824 26.9809 72.1357 26.9867C72.089 26.9927 72.0513 27.003 72.0229 27.0172C71.9944 27.0314 71.9751 27.0486 71.965 27.069C71.9548 27.0892 71.9497 27.1116 71.9497 27.1359V32.6491C71.9497 32.6735 71.9548 32.6957 71.965 32.716C71.9752 32.7362 71.9944 32.7526 72.0229 32.7647C72.0513 32.7769 72.089 32.7868 72.1357 32.7949C72.1823 32.8027 72.2402 32.8073 72.3093 32.8073C72.3824 32.8073 72.4423 32.8035 72.489 32.7949C72.5357 32.7871 72.5722 32.7768 72.5986 32.7647C72.625 32.7525 72.6443 32.7362 72.6565 32.716C72.6687 32.6957 72.6747 32.6734 72.6747 32.6491V27.1359C72.6747 27.1116 72.6689 27.0892 72.6565 27.069C72.6443 27.0487 72.625 27.0314 72.5986 27.0172C72.5723 27.003 72.5358 26.9928 72.489 26.9867C72.4424 26.9806 72.3824 26.9779 72.3093 26.9779ZM110.185 26.9779C110.117 26.9779 110.059 26.9809 110.012 26.9867C109.965 26.9927 109.928 27.003 109.899 27.0172C109.871 27.0314 109.851 27.0486 109.841 27.069C109.831 27.0892 109.826 27.1116 109.826 27.1359V32.6491C109.826 32.6735 109.831 32.6957 109.841 32.716C109.851 32.7362 109.871 32.7526 109.899 32.7647C109.928 32.7769 109.965 32.7868 110.012 32.7949C110.059 32.8027 110.116 32.8073 110.185 32.8073C110.259 32.8073 110.319 32.8035 110.365 32.7949C110.412 32.7871 110.448 32.7768 110.475 32.7647C110.501 32.7525 110.521 32.7362 110.533 32.716C110.545 32.6957 110.551 32.6734 110.551 32.6491V27.1359C110.551 27.1116 110.545 27.0892 110.533 27.069C110.521 27.0487 110.501 27.0314 110.475 27.0172C110.448 27.003 110.412 26.9928 110.365 26.9867C110.319 26.9806 110.259 26.9779 110.185 26.9779ZM132.133 26.9779C132.047 26.9779 131.979 26.9809 131.929 26.9867C131.878 26.9927 131.841 27.0061 131.819 27.0263C131.797 27.0466 131.786 27.074 131.786 27.1086C131.786 27.1431 131.796 27.1886 131.816 27.2454L133.82 32.6246C133.828 32.6531 133.844 32.6814 133.869 32.7098C133.893 32.7383 133.921 32.7585 133.954 32.7706L133.174 34.7261C133.154 34.7748 133.146 34.8164 133.15 34.851C133.154 34.8855 133.169 34.9141 133.196 34.9364C133.222 34.9587 133.259 34.9738 133.308 34.9819C133.357 34.9897 133.418 34.9943 133.491 34.9943C133.633 34.9943 133.737 34.9789 133.802 34.9485C133.867 34.918 133.909 34.8807 133.929 34.836L134.697 32.7706L136.756 27.2454C136.776 27.1926 136.786 27.1492 136.786 27.1147C136.786 27.0802 136.774 27.0528 136.75 27.0325C136.726 27.0121 136.688 26.9977 136.637 26.9896C136.586 26.9818 136.522 26.9775 136.445 26.9775C136.364 26.9775 136.295 26.9805 136.238 26.9862C136.181 26.9923 136.136 27.0044 136.101 27.0227C136.067 27.0409 136.039 27.0786 136.019 27.1355L134.325 31.948H134.301L132.577 27.1355C132.565 27.107 132.552 27.0827 132.538 27.0623C132.524 27.042 132.501 27.0257 132.471 27.0135C132.44 27.0014 132.399 26.9923 132.346 26.9863C132.293 26.9802 132.222 26.9775 132.133 26.9775L132.133 26.9779ZM67.8383 27.5202C68.2607 27.5202 68.5864 27.6377 68.8159 27.8733C69.0453 28.1088 69.1601 28.4358 69.1601 28.8541C69.1601 29.0328 69.1336 29.2046 69.0808 29.369C69.0281 29.5335 68.9491 29.6776 68.8435 29.8015C68.7379 29.9253 68.6026 30.0239 68.4381 30.097C68.2737 30.17 68.082 30.2065 67.8627 30.2065C67.4485 30.2065 67.1266 30.0899 66.8972 29.8564C66.6678 29.6229 66.5529 29.3028 66.5529 28.8967C66.5529 28.7099 66.5794 28.5333 66.6323 28.3668C66.685 28.2003 66.7643 28.0541 66.8699 27.9282C66.9755 27.8023 67.1093 27.7028 67.2717 27.6297C67.4341 27.5566 67.6231 27.5202 67.8383 27.5202H67.8383ZM120.797 27.5202C121.219 27.5202 121.545 27.6377 121.774 27.8733C122.004 28.1088 122.118 28.4358 122.118 28.8541C122.118 29.0328 122.092 29.2046 122.039 29.369C121.986 29.5335 121.907 29.6776 121.802 29.8015C121.696 29.9253 121.561 30.0239 121.397 30.097C121.232 30.17 121.04 30.2065 120.821 30.2065C120.407 30.2065 120.085 30.0899 119.856 29.8564C119.626 29.6229 119.511 29.3028 119.511 28.8967C119.511 28.7099 119.538 28.5333 119.591 28.3668C119.643 28.2003 119.723 28.0541 119.828 27.9282C119.934 27.8023 120.068 27.7028 120.23 27.6297C120.392 27.5566 120.581 27.5202 120.797 27.5202ZM58.823 27.5322C59.1316 27.5322 59.427 27.6299 59.7092 27.8248C59.9914 28.0198 60.285 28.3019 60.5895 28.6714V31.0776C60.4109 31.2969 60.2433 31.4807 60.087 31.6289C59.9306 31.7772 59.7793 31.898 59.6331 31.9914C59.4869 32.0849 59.345 32.1517 59.2069 32.1923C59.0689 32.233 58.9266 32.2534 58.7804 32.2534C58.488 32.2534 58.2442 32.1853 58.0493 32.0493C57.8544 31.9132 57.6983 31.7324 57.5805 31.507C57.4627 31.2816 57.3793 31.0249 57.3306 30.7365C57.2818 30.4482 57.2574 30.1516 57.2574 29.847C57.2574 29.5627 57.286 29.2828 57.3429 29.0066C57.3997 28.7304 57.491 28.4827 57.6169 28.2634C57.7428 28.0441 57.9052 27.8672 58.1042 27.7332C58.3032 27.5992 58.5428 27.5323 58.823 27.5323L58.823 27.5322ZM149.097 27.5322C149.633 27.5322 150.041 27.6968 150.321 28.0258C150.602 28.3547 150.736 28.8116 150.724 29.3964H147.373C147.385 29.1527 147.43 28.9183 147.507 28.6929C147.585 28.4675 147.695 28.2695 147.839 28.0989C147.984 27.9283 148.16 27.7912 148.369 27.6876C148.578 27.5841 148.821 27.5322 149.097 27.5322ZM80.9348 30.0482H81.9397V31.3458C81.6594 31.6544 81.3946 31.8828 81.1448 32.0311C80.8951 32.1793 80.6259 32.2534 80.3376 32.2534C79.9721 32.2534 79.6892 32.1588 79.4881 31.97C79.2871 31.7811 79.1865 31.5286 79.1865 31.2118C79.1865 31.029 79.2221 30.8666 79.2931 30.7245C79.3642 30.5823 79.4727 30.4603 79.6189 30.3587C79.7651 30.2572 79.948 30.18 80.1673 30.1273C80.3866 30.0745 80.6424 30.0482 80.9348 30.0482ZM100.78 30.0482H101.786V31.3458C101.505 31.6544 101.24 31.8828 100.991 32.0311C100.741 32.1793 100.472 32.2534 100.184 32.2534C99.818 32.2534 99.5348 32.1588 99.3338 31.97C99.1327 31.7811 99.0321 31.5286 99.0321 31.2118C99.0321 31.029 99.0677 30.8666 99.1387 30.7245C99.2097 30.5823 99.3186 30.4603 99.4648 30.3587C99.6109 30.2572 99.7936 30.18 100.013 30.1273C100.232 30.0745 100.488 30.0482 100.78 30.0482ZM66.9369 32.296L68.5389 32.351C68.9044 32.3632 69.1955 32.4404 69.4127 32.5825C69.63 32.7246 69.7388 32.9296 69.7388 33.1976C69.7388 33.3519 69.7083 33.5002 69.6474 33.6424C69.5865 33.7845 69.485 33.9105 69.3428 34.0201C69.2007 34.1298 69.0151 34.2181 68.7856 34.2851C68.5562 34.3522 68.2708 34.3855 67.9297 34.3855C67.3896 34.3855 66.9683 34.3084 66.6657 34.1541C66.3632 33.9997 66.2119 33.7722 66.2119 33.4717C66.2119 33.3782 66.2222 33.2861 66.2424 33.1947C66.2628 33.1033 66.3001 33.0099 66.355 32.9144C66.4098 32.819 66.4839 32.7204 66.5773 32.6189C66.6707 32.5174 66.7906 32.4098 66.9368 32.2961L66.9369 32.296ZM119.895 32.296L121.497 32.351C121.863 32.3632 122.154 32.4404 122.371 32.5825C122.589 32.7246 122.697 32.9296 122.697 33.1976C122.697 33.3519 122.667 33.5002 122.606 33.6424C122.545 33.7845 122.443 33.9105 122.301 34.0201C122.159 34.1298 121.973 34.2181 121.744 34.2851C121.515 34.3522 121.229 34.3855 120.888 34.3855C120.348 34.3855 119.927 34.3084 119.624 34.1541C119.322 33.9997 119.17 33.7722 119.17 33.4717C119.17 33.3782 119.181 33.2861 119.201 33.1947C119.221 33.1033 119.258 33.0099 119.313 32.9144C119.368 32.819 119.442 32.7204 119.536 32.6189C119.629 32.5174 119.749 32.4098 119.895 32.2961L119.895 32.296Z" fill="#5176A1"/>
<path d="M39.5258 25.9001C39.3425 25.493 38.8867 25.296 38.4454 25.3753C37.5391 24.2957 36.7521 23.1755 36.1623 21.987C35.5794 20.8122 35.1959 19.5633 35.045 18.2337C35.393 18.0186 35.554 17.6289 35.4492 17.2473C36.2123 16.7813 36.8368 16.2208 37.2819 15.5339C37.7424 14.8222 38.0088 13.9818 38.0658 13.0041C38.1097 12.9925 38.1536 12.9954 38.196 12.9779C38.6926 12.7773 38.9213 12.235 38.7088 11.7676C38.5556 11.4295 38.2129 11.2296 37.8487 11.2158C37.3836 9.02115 37.6246 7.20887 38.2345 5.707C38.7912 4.33307 39.6559 3.2143 40.5607 2.28672C40.8148 2.41829 41.1213 2.45464 41.4078 2.33833C41.9044 2.13769 42.1331 1.59539 41.9206 1.12796C41.7081 0.659084 41.1344 0.442454 40.6377 0.643091C40.5546 0.677258 40.4899 0.733233 40.4214 0.784846C39.1885 0.0986101 37.6138 -0.123835 36.0683 0.0637168C34.7069 0.229461 33.364 0.711426 32.2967 1.46382C31.867 1.16068 31.2864 1.06981 30.759 1.28353C30.1175 1.54378 29.7633 2.16459 29.8372 2.78831C28.8169 3.12561 27.9283 3.58068 27.2076 4.18768C26.3628 4.89718 25.753 5.81095 25.3826 6.92972C25.2555 6.93045 25.1269 6.95444 25.0029 7.0046C24.5063 7.20524 24.2776 7.74754 24.4901 8.21497C24.5378 8.32037 24.6087 8.40761 24.688 8.48539C24.2606 9.74737 24.0674 10.9839 24.0858 12.1965C24.102 13.2331 24.266 14.2508 24.5409 15.254C24.062 15.5586 23.8633 16.1489 24.0997 16.6693C24.3138 17.1419 24.822 17.4057 25.3371 17.3614C26.215 19.0232 26.9319 20.5883 27.5086 22.0684C28.0839 23.5463 28.5259 24.9435 28.8847 26.2905C28.5782 26.5471 28.4558 26.96 28.626 27.3351C28.8385 27.8047 29.4122 28.0206 29.9088 27.82C30.0698 27.7553 30.1891 27.6462 30.2885 27.5227C31.6622 27.9821 32.9851 28.0875 34.2688 27.9341C35.5155 27.7851 36.7229 27.3904 37.9072 26.8648C38.1798 27.1541 38.6187 27.2697 39.0153 27.1083C39.5096 26.9113 39.7391 26.369 39.5258 25.9001ZM37.6408 25.7882C36.3032 25.4341 35.0642 24.926 33.94 24.2449C32.8373 23.5775 31.8501 22.7299 30.9723 21.7056C31.2464 21.4069 31.3449 20.9889 31.2102 20.5949L34.1386 18.3217C34.3003 19.7523 34.7269 21.0863 35.3514 22.3453C35.9513 23.5543 36.7337 24.6948 37.6408 25.7882ZM28.2017 18.124C27.6573 17.5795 27.032 17.0968 26.3628 16.6468C26.4791 16.3713 26.4845 16.0536 26.3513 15.7585C26.302 15.6494 26.2335 15.5557 26.1557 15.4699C26.6593 14.687 27.2622 14.0138 27.9653 13.4526C28.5674 12.9692 29.2505 12.5723 29.9958 12.2401C30.4047 12.7431 31.1062 12.9612 31.7646 12.7707L33.8568 16.8126C33.615 17.0292 33.5157 17.3447 33.5842 17.6595L30.6419 19.9428C30.3408 19.785 29.9743 19.748 29.6301 19.8672C29.1996 19.2507 28.7353 18.6597 28.2017 18.124ZM36.8484 15.2845C36.4526 15.8959 35.8928 16.4004 35.209 16.8249C35.1289 16.75 35.0357 16.6962 34.9372 16.6526L34.9347 16.609L34.9039 16.6323C34.7191 16.5574 34.5135 16.5516 34.3102 16.5945L32.2242 12.5657C32.5315 12.3636 32.7417 12.0685 32.8456 11.7421L36.8598 12.2517C36.8722 12.3331 36.8768 12.4153 36.9137 12.4945C37.0346 12.7613 37.278 12.9328 37.5521 13.0055C37.4967 13.8888 37.2595 14.647 36.8483 15.2845H36.8484ZM37.7593 5.53617C37.1179 7.118 36.8692 9.02624 37.3582 11.3263C37.1541 11.4295 36.997 11.5844 36.9123 11.7748L32.9174 11.2674C32.9127 11.0762 32.8719 10.8821 32.788 10.6953C32.5847 10.2482 32.182 9.9451 31.7215 9.8237C32.2436 7.54399 33.3432 5.89455 34.7909 4.67328C36.2917 3.40767 38.1682 2.58767 40.158 1.98649C39.227 2.94679 38.3384 4.10845 37.7593 5.53617ZM36.1315 0.54132L36.2062 0.532597L36.2102 0.53187L36.2811 0.5246L36.288 0.523872L36.355 0.516603H36.3658L36.4282 0.51006L36.4436 0.508605L36.5029 0.504972L36.5206 0.504244L36.576 0.499882L36.5976 0.4977L36.6508 0.494793L36.7247 0.49116L36.7531 0.488253L36.8001 0.487526L36.8309 0.48462H36.874L36.9087 0.482437H36.9479H36.9864L37.0211 0.48171L37.0642 0.480982H37.0957H37.1412H37.1689L37.2174 0.48171H37.242L37.2944 0.482437L37.3144 0.483165L37.3707 0.48462H37.3876L37.4469 0.486075L37.4608 0.48753L37.5239 0.491163H37.5339L37.6002 0.494797L37.6071 0.495525L37.6764 0.499886H37.6805L37.7521 0.505702L37.8968 0.519514L37.9038 0.520241L37.9692 0.526784L37.9777 0.527511L38.0385 0.535508L38.0524 0.536963L38.1102 0.544232L38.1263 0.547139L38.1802 0.554408L38.2003 0.557314L38.2503 0.563857L38.3173 0.574761H38.3214L38.3484 0.579123L38.3915 0.587846L38.4215 0.592208L38.4615 0.599477L38.4954 0.605293L38.5316 0.61329L38.5678 0.619832L38.6009 0.627829L38.6109 0.628556L38.6709 0.642368L38.7133 0.652545L38.7394 0.657634L38.7856 0.667811L38.808 0.672899L38.8565 0.685257L38.875 0.6918L38.9266 0.704158L38.9428 0.708519L38.9975 0.723058L39.0098 0.72742L39.0668 0.74414L39.0768 0.746322L39.1368 0.763769L39.1438 0.765951L39.2062 0.785579L39.2094 0.787034L39.2749 0.808115L39.3403 0.83065H39.3435L39.4059 0.852459L39.4113 0.854641L39.4691 0.87645L39.4791 0.880084L39.533 0.899711L39.5461 0.905527L39.5969 0.925154L39.6116 0.932424L39.6785 0.95932L39.7224 0.977494L39.7432 0.986944L39.7841 1.00512L39.8079 1.01602L39.8457 1.03201L39.8718 1.0451L39.9065 1.06109L39.9357 1.07418L39.9665 1.09017L39.9981 1.10616L40.0266 1.1207L40.0597 1.13815L40.0858 1.15123L40.112 1.1665C40.0673 1.27845 40.0473 1.39767 40.0519 1.51907C37.9852 2.13915 36.0285 2.9875 34.4561 4.31345C32.9638 5.57252 31.8195 7.2554 31.2612 9.56491C31.0895 8.74346 31.0079 7.91111 31.0163 7.06785C31.0248 6.09229 31.1611 5.09855 31.4106 4.0881C31.6008 4.08374 31.7941 4.04811 31.9797 3.97251C32.7659 3.6541 33.1302 2.79413 32.7937 2.05191C32.7536 1.96468 32.7051 1.88472 32.6504 1.80911C33.6384 1.13015 34.8758 0.693252 36.1325 0.54132H36.1315ZM27.5441 4.54679C28.2055 3.98923 29.0225 3.56396 29.9689 3.24774C30.0983 3.51017 30.2992 3.72098 30.5418 3.86637C30.2723 4.94807 30.1283 6.01523 30.1191 7.06421C30.1098 8.05722 30.2176 9.03278 30.4394 9.99308C29.9027 10.302 29.6108 10.8683 29.6686 11.4462C28.8308 11.8133 28.0661 12.2633 27.3862 12.8071C26.6123 13.4272 25.9462 14.1599 25.3941 15.0148C25.1415 14.0836 24.9929 13.1408 24.9783 12.1863C24.9606 11.0639 25.14 9.91893 25.5358 8.74854C25.6151 8.73691 25.6937 8.73328 25.7707 8.70275C26.2666 8.50211 26.4953 7.95981 26.2835 7.49238C26.1965 7.30192 26.0417 7.16598 25.8638 7.07002C26.2073 6.03703 26.7694 5.19814 27.5441 4.54679ZM26.2042 17.1004C26.8002 17.5104 27.3415 17.964 27.8305 18.4547C28.3426 18.9658 28.783 19.5321 29.195 20.1202C28.8408 20.4451 28.7145 20.9525 28.9201 21.4069C29.0687 21.7333 29.3606 21.9586 29.6963 22.0531L29.4407 24.9747C29.1357 23.9439 28.7753 22.8804 28.3449 21.7791C27.7697 20.2997 27.0682 18.7477 26.2042 17.1004ZM34.201 27.4587C32.9998 27.6019 31.7623 27.5096 30.4748 27.0814C30.4956 26.9251 30.4894 26.7652 30.4194 26.6096C30.3077 26.3668 30.0975 26.196 29.8526 26.1117L30.2038 22.0931C30.3146 22.08 30.424 22.0575 30.5318 22.0146C30.5449 22.0095 30.5541 22.0015 30.5672 21.9964C31.482 23.0658 32.5139 23.9497 33.6666 24.6469C34.8763 25.3811 36.2147 25.9132 37.6546 26.2825C37.6554 26.3334 37.6777 26.3835 37.6877 26.4344C36.5481 26.9396 35.3899 27.3177 34.201 27.4587H34.201Z" fill="#3FAEE3"/>
<path d="M27.9233 28.3815C27.7596 27.9754 27.373 27.757 26.9811 27.7924C26.2249 26.5206 25.4872 25.1478 24.7768 23.6149C24.0672 22.0812 23.388 20.3789 22.7421 18.4841C23.1154 18.1355 23.2584 17.5623 23.0525 17.049C22.8244 16.4852 22.2577 16.1911 21.7148 16.3188C21.1563 15.3655 20.5134 14.4824 19.7586 13.6954C18.8772 12.7752 17.835 11.9938 16.621 11.3662C16.6158 11.2495 16.5988 11.1312 16.5521 11.0176C16.3477 10.5106 15.7959 10.2757 15.3181 10.4933C15.2026 10.5461 15.1041 10.6226 15.0204 10.7117C13.9456 10.1471 12.8649 9.92556 11.7769 10.0218C10.8517 10.1038 9.92586 10.4223 9.00073 10.9262C8.58816 10.4058 7.89561 10.2039 7.27786 10.4862C6.76975 10.718 6.45273 11.2156 6.39199 11.7604C5.12836 11.9907 3.88103 12.6254 2.85739 13.5117C1.70708 14.5076 0.836024 15.8213 0.515303 17.2311C0.0805133 17.4692 -0.120957 18.0204 0.0753284 18.5046C0.27902 19.0139 0.83158 19.2481 1.30933 19.0305C1.53672 18.9264 1.70042 18.7356 1.793 18.5117C3.00108 18.5566 4.301 18.7679 5.58611 19.3372C7.09862 20.0083 8.59482 21.1855 9.90734 23.1702C9.67624 23.4509 9.59625 23.8546 9.74364 24.2213C9.94808 24.7299 10.5006 24.9633 10.9769 24.7472C11.0191 24.7291 11.0465 24.6936 11.0843 24.6684C11.8428 25.3575 12.6405 25.788 13.4708 25.9773C14.2715 26.1618 15.1004 26.1184 15.9507 25.8992C16.1625 26.2627 16.5573 26.4346 16.9484 26.3368C17.8291 27.4439 18.4965 28.6614 18.9779 29.9735C19.4638 31.2997 19.769 32.7206 19.9638 34.2007C19.6127 34.4688 19.4579 34.9537 19.6349 35.3929C19.8401 35.9015 20.3919 36.1365 20.8689 35.9188C21.2519 35.7438 21.457 35.3322 21.423 34.9127C22.597 34.4278 23.688 33.8277 24.6242 33.014C25.5872 32.1781 26.3745 31.1089 26.9456 29.7503C27.1063 29.7724 27.2715 29.7669 27.4307 29.6943C27.9078 29.4783 28.1285 28.89 27.9233 28.3815ZM25.636 27.2208L23.3117 25.2282C23.4636 24.9081 23.491 24.5233 23.348 24.1692C23.1473 23.6709 22.6807 23.387 22.2014 23.413C22.04 22.6687 21.9303 21.9157 21.8918 21.1532C21.8548 20.4222 21.8785 19.6834 21.9703 18.9351C22.6125 20.8062 23.294 22.4873 24.0028 24.0202C24.5331 25.1628 25.0783 26.2241 25.636 27.2208ZM17.4899 24.8245C17.3025 24.5398 17.004 24.3774 16.684 24.3947L15.0885 19.8206C15.6648 19.476 15.9685 18.7924 15.8692 18.1127C16.6077 17.8083 17.3543 17.5993 18.1098 17.5118C18.9898 17.4109 19.8867 17.4669 20.7993 17.6782C20.8119 17.7996 20.8348 17.9219 20.8822 18.0393C21.0074 18.3508 21.237 18.5779 21.5081 18.7001C21.3948 19.5375 21.3622 20.3647 21.403 21.1816C21.4437 21.9795 21.5548 22.7688 21.7259 23.551C21.4178 23.7206 21.2074 24.0139 21.1252 24.3514L17.4899 24.8245ZM11.8169 10.5414C12.8116 10.4531 13.8041 10.6549 14.7937 11.1722C14.7448 11.378 14.7419 11.5972 14.8263 11.8069C15.0307 12.3155 15.5833 12.5505 16.0596 12.3329C16.1336 12.299 16.1892 12.243 16.2499 12.1933C17.3765 12.7752 18.3409 13.4983 19.1572 14.3507C19.8519 15.0745 20.4489 15.8899 20.9682 16.7738C19.9712 16.5427 18.9875 16.4891 18.0187 16.6003C17.1669 16.6981 16.3277 16.9299 15.5018 17.2753C15.113 16.8014 14.5011 16.594 13.9175 16.7612C13.3545 15.8796 12.7064 15.069 11.9687 14.3333C11.1865 13.5559 10.3036 12.8659 9.32737 12.2564C9.38144 11.9678 9.35922 11.6611 9.25034 11.3685C10.1103 10.9025 10.9673 10.6155 11.8169 10.5414H11.8169ZM1.05897 17.0671L1.06786 17.0395L1.07971 16.9985L1.08786 16.9733L1.10193 16.9283L1.11008 16.9062L1.12563 16.8589L1.14859 16.7903L1.15452 16.7738L1.17304 16.7209L1.17748 16.7083L1.19748 16.6523L1.20192 16.6429L1.22488 16.5837L1.22785 16.5782L1.25155 16.5159L1.25229 16.5128L1.2797 16.4473L1.3071 16.3827L1.30858 16.3795L1.33599 16.3196L1.33895 16.3117L1.36488 16.2549L1.36932 16.2455L1.39525 16.1903L1.40117 16.1777L1.4271 16.1272L1.4345 16.1122L1.45746 16.0633L1.46709 16.046L1.49079 16.001L1.50265 15.9789L1.52413 15.9379L1.53746 15.9143L1.55894 15.8749L1.58783 15.8212L1.59376 15.8126L1.61005 15.7834L1.62783 15.7511L1.64783 15.718L1.66338 15.6888L1.68486 15.6541L1.70042 15.6281L1.72338 15.5902L1.73819 15.5673L1.74116 15.5634L1.77745 15.5082L1.80486 15.4648L1.81671 15.4475L1.84708 15.4018L1.85671 15.3868L1.8893 15.3379L1.89744 15.3261L1.933 15.2764L1.93892 15.2677L1.9767 15.2149L1.98114 15.2094L2.06706 15.0927L2.11151 15.0343L2.11299 15.0335L2.15521 14.9775L2.15965 14.972L2.20113 14.9208L2.2078 14.9121L2.24705 14.864L2.25668 14.8522L2.29372 14.8064L2.30557 14.7938L2.34187 14.7512L2.3552 14.7339L2.38853 14.6945L2.40556 14.6763L2.43741 14.6401L2.45593 14.6195L2.48556 14.5856L2.5063 14.5636L2.5337 14.5328L2.55814 14.506L2.58407 14.4784L2.61 14.45L2.63444 14.4248L2.66184 14.3932L2.68332 14.3712L2.71517 14.3388L2.73517 14.3199L2.78702 14.2671L2.82405 14.2316L2.83961 14.2158L2.88035 14.1772L2.89368 14.1646L2.9359 14.1244L2.94775 14.1149L2.99367 14.0723L3.00182 14.0636L3.05071 14.0195L3.05663 14.014L3.10848 13.969L3.11145 13.9659L3.16626 13.917C4.11213 13.0993 5.25428 12.5071 6.41273 12.2832C6.43199 12.3802 6.45865 12.4764 6.49717 12.571C6.8216 13.3761 7.6971 13.7498 8.45483 13.4029C8.63334 13.3217 8.78815 13.205 8.91851 13.067C9.82882 13.6378 10.6532 14.2789 11.3791 15.002C12.0072 15.6273 12.5672 16.3109 13.0605 17.0513C10.9836 15.7393 8.9837 15.33 7.06381 15.4956C5.14985 15.6604 3.32255 16.4016 1.58266 17.3865C1.43452 17.2382 1.24268 17.1594 1.04195 17.1349L1.05084 17.1073L1.05897 17.0671ZM5.77351 18.8602C4.441 18.268 3.1033 18.0527 1.85745 18.0031C1.85152 17.9479 1.84041 17.8927 1.82559 17.8383C3.5092 16.8857 5.26983 16.1714 7.1038 16.0121C8.96591 15.852 10.9132 16.2699 12.9412 17.5875C12.7257 18.0196 12.6827 18.5448 12.8783 19.0297C12.9597 19.2324 13.0768 19.4074 13.2153 19.5533L10.9406 22.8958C10.7436 22.8169 10.5243 22.8169 10.3132 22.891C8.93999 20.8086 7.36749 19.5659 5.77351 18.8602ZM13.5738 25.4711C12.8301 25.3007 12.1131 24.9096 11.425 24.2922C11.5539 24.0336 11.588 23.7237 11.471 23.4343C11.4369 23.3484 11.3806 23.2829 11.328 23.2136L13.6138 19.8553C13.9241 20.0224 14.2804 20.0855 14.6345 20.009L16.224 24.5682C16.0566 24.6873 15.9255 24.845 15.8581 25.0374L15.8196 25.0421L15.8514 25.076C15.8181 25.1832 15.7966 25.2929 15.7981 25.4072C15.0315 25.598 14.2871 25.6359 13.5738 25.4711L13.5738 25.4711ZM17.6128 25.7313L21.2311 25.2597C21.4326 25.6548 21.8066 25.8937 22.2088 25.9142C22.3829 27.3296 22.3533 28.6969 22.1155 30.0137C21.8726 31.3581 21.4259 32.656 20.8015 33.9129C20.5963 32.4218 20.2734 30.9899 19.7786 29.6399C19.2638 28.2356 18.5609 26.9219 17.6128 25.7313ZM24.3146 32.6118C23.4228 33.3869 22.3777 33.9633 21.2474 34.4317C21.2163 34.386 21.1941 34.3316 21.1563 34.2929C21.8392 32.9501 22.3333 31.5584 22.5947 30.1122C22.8429 28.7363 22.8755 27.3075 22.6918 25.8306C22.7044 25.8259 22.7162 25.8235 22.7281 25.818C22.8325 25.7707 22.9221 25.7052 23.0051 25.6343L26.2042 28.3775C26.1034 28.6227 26.0893 28.9058 26.196 29.1708C26.2612 29.3332 26.3693 29.4546 26.4915 29.5555C25.9553 30.8274 25.2168 31.8288 24.3146 32.6118H24.3146Z" fill="#D51C59"/>
</svg>
