<svg width="17" height="23" viewBox="0 0 17 23" fill="none" xmlns="http://www.w3.org/2000/svg">
<mask id="path-1-outside-1" maskUnits="userSpaceOnUse" x="0" y="0" width="17" height="23" fill="black">
<rect fill="white" width="17" height="23"/>
<path d="M5.28571 2H11.7143V5.33333H5.28571V2Z"/>
</mask>
<path d="M5.28571 4.97222C5.69993 4.97222 6.03571 4.63644 6.03571 4.22222C6.03571 3.80801 5.69993 3.47222 5.28571 3.47222V4.97222ZM11.7143 3.47222C11.3001 3.47222 10.9643 3.80801 10.9643 4.22222C10.9643 4.63644 11.3001 4.97222 11.7143 4.97222V3.47222ZM4.21429 9.02778C3.80007 9.02778 3.46429 9.36356 3.46429 9.77778C3.46429 10.192 3.80007 10.5278 4.21429 10.5278V9.02778ZM12.7857 10.5278C13.1999 10.5278 13.5357 10.192 13.5357 9.77778C13.5357 9.36356 13.1999 9.02778 12.7857 9.02778V10.5278ZM4.21429 12.9167C3.80007 12.9167 3.46429 13.2525 3.46429 13.6667C3.46429 14.0809 3.80007 14.4167 4.21429 14.4167V12.9167ZM9.57143 14.4167C9.98564 14.4167 10.3214 14.0809 10.3214 13.6667C10.3214 13.2525 9.98564 12.9167 9.57143 12.9167V14.4167ZM4.21429 16.8056C3.80007 16.8056 3.46429 17.1413 3.46429 17.5556C3.46429 17.9698 3.80007 18.3056 4.21429 18.3056V16.8056ZM7.42857 18.3056C7.84278 18.3056 8.17857 17.9698 8.17857 17.5556C8.17857 17.1413 7.84278 16.8056 7.42857 16.8056V18.3056ZM15.25 6.88889V19.3333H16.75V6.88889H15.25ZM13.3333 21.25H3.66667V22.75H13.3333V21.25ZM1.75 19.3333V6.88889H0.25V19.3333H1.75ZM3.66667 4.97222H5.28571V3.47222H3.66667V4.97222ZM11.7143 4.97222H13.3333V3.47222H11.7143V4.97222ZM4.21429 10.5278H12.7857V9.02778H4.21429V10.5278ZM4.21429 14.4167H9.57143V12.9167H4.21429V14.4167ZM4.21429 18.3056H7.42857V16.8056H4.21429V18.3056ZM1.75 6.88889C1.75 5.83034 2.60812 4.97222 3.66667 4.97222V3.47222C1.77969 3.47222 0.25 5.00192 0.25 6.88889H1.75ZM3.66667 21.25C2.60812 21.25 1.75 20.3919 1.75 19.3333H0.25C0.25 21.2203 1.77969 22.75 3.66667 22.75V21.25ZM15.25 19.3333C15.25 20.3919 14.3919 21.25 13.3333 21.25V22.75C15.2203 22.75 16.75 21.2203 16.75 19.3333H15.25ZM16.75 6.88889C16.75 5.00192 15.2203 3.47222 13.3333 3.47222V4.97222C14.3919 4.97222 15.25 5.83034 15.25 6.88889H16.75ZM5.28571 2V0.5C4.45729 0.5 3.78571 1.17157 3.78571 2L5.28571 2ZM11.7143 2H13.2143C13.2143 1.17157 12.5427 0.5 11.7143 0.5V2ZM11.7143 5.33333V6.83333H13.2143V5.33333H11.7143ZM5.28571 5.33333H3.78571V6.83333H5.28571V5.33333ZM5.28571 3.5H11.7143V0.5H5.28571V3.5ZM10.2143 2V5.33333H13.2143V2H10.2143ZM11.7143 3.83333H5.28571V6.83333H11.7143V3.83333ZM6.78571 5.33333V2H3.78571V5.33333H6.78571Z" fill="#5176A2" mask="url(#path-1-outside-1)"/>
</svg>
